<?xml version="1.0" encoding="UTF-8" standalone="no"?>
<!-- Created with Inkscape (http://www.inkscape.org/) -->

<svg
   xmlns:dc="http://purl.org/dc/elements/1.1/"
   xmlns:cc="http://creativecommons.org/ns#"
   xmlns:rdf="http://www.w3.org/1999/02/22-rdf-syntax-ns#"
   xmlns:svg="http://www.w3.org/2000/svg"
   xmlns="http://www.w3.org/2000/svg"
   xmlns:sodipodi="http://sodipodi.sourceforge.net/DTD/sodipodi-0.dtd"
   xmlns:inkscape="http://www.inkscape.org/namespaces/inkscape"
   width="151.88792mm"
   height="57.732452mm"
   viewBox="0 0 151.88792 57.732453"
   version="1.1"
   id="svg2196"
   inkscape:version="0.92.4 (5da689c313, 2019-01-14)"
   sodipodi:docname="wind.svg">
  <defs
     id="defs2190" />
  <sodipodi:namedview
     id="base"
     pagecolor="#ffffff"
     bordercolor="#666666"
     borderopacity="1.0"
     inkscape:pageopacity="0.0"
     inkscape:pageshadow="2"
     inkscape:zoom="2"
     inkscape:cx="46.686553"
     inkscape:cy="-34.575834"
     inkscape:document-units="mm"
     inkscape:current-layer="layer1"
     showgrid="false"
     fit-margin-top="0"
     fit-margin-left="0"
     fit-margin-right="0"
     fit-margin-bottom="0"
     inkscape:window-width="3840"
     inkscape:window-height="2160"
     inkscape:window-x="0"
     inkscape:window-y="0"
     inkscape:window-maximized="1" />
  <metadata
     id="metadata2193">
    <rdf:RDF>
      <cc:Work
         rdf:about="">
        <dc:format>image/svg+xml</dc:format>
        <dc:type
           rdf:resource="http://purl.org/dc/dcmitype/StillImage" />
        <dc:title />
      </cc:Work>
    </rdf:RDF>
  </metadata>
  <g
     inkscape:label="Layer 1"
     inkscape:groupmode="layer"
     id="layer1"
     transform="translate(-14.292286,-75.366174)">
    <g
       id="g835">
      <path
         inkscape:connector-curvature="0"
         id="path122"
         style="fill:#febe79;fill-opacity:1;fill-rule:nonzero;stroke:none;stroke-width:0.03527778"
         d="m 107.94501,125.68924 c 0.009,-0.008 0.0178,-0.0152 0.0272,-0.0225 0.011,0.006 0.0204,0.0129 0.0344,0.0169 1.00113,0.25623 2.02315,0.0996 2.86836,-0.50279 0.13558,-0.0968 -0.0114,-0.33684 -0.15702,-0.24992 -0.72637,0.4336 -1.57873,0.61758 -2.41042,0.46565 0.60305,-0.42923 1.31544,-0.64466 2.06386,-0.78307 0.42644,-0.0782 0.89157,-0.16549 1.32588,-0.13517 0.90642,0.0639 1.41039,0.89693 0.89388,1.70028 -0.59701,0.92914 -2.01738,0.96739 -2.95554,0.66011 -0.70634,-0.23162 -1.16842,-0.68226 -1.69048,-1.14878 z m -2.55423,-1.45335 c -0.41011,-0.46079 -1.23135,-1.50444 -1.13466,-2.18006 0.2013,-0.31687 0.40259,-0.63374 0.60389,-0.95062 0.50873,0.16315 0.86517,0.48061 1.06942,0.95285 0.17096,0.30663 0.30758,0.64005 0.42198,0.97076 0.15555,0.45013 0.22064,0.90572 0.28572,1.36131 -0.2561,-0.26693 -0.48946,-0.55652 -0.68993,-0.88253 -0.12147,-0.19723 -0.25844,-0.59951 -0.46497,-0.72577 -0.12964,-0.0799 -0.33603,0.0508 -0.24872,0.20686 0.007,0.0124 0.0157,0.0243 0.0232,0.0369 v 0 c 6e-5,3.8e-4 4.9e-4,6.9e-4 6.4e-4,7.7e-4 0.0273,0.0456 0.0561,0.0897 0.085,0.13394 0.0154,0.0234 0.0337,0.037 0.0537,0.0462 0.12965,0.21161 0.24331,0.50618 0.3671,0.69215 0.27196,0.40968 0.60017,0.85015 0.99358,1.18925 0.0183,0.0912 0.0318,0.18311 0.0549,0.27428 0.001,0.0101 0.007,0.0163 0.0104,0.0251 -0.52774,-0.31657 -1.01792,-0.68913 -1.43077,-1.15219 z m 8.40822,-5.34426 c 0.38798,-0.009 0.78056,0.0148 1.16555,0.0613 0.28477,0.0265 0.56552,0.0767 0.84228,0.15032 0.69781,0.63552 0.77134,1.10181 0.22084,1.39851 -0.65227,0.64984 -2.00304,0.45636 -2.79197,0.2116 -0.68499,-0.21232 -1.21783,-0.58118 -1.74125,-1.02059 0.009,-0.0188 0.0112,-0.0388 0.0139,-0.0595 0.97739,0.46196 2.0816,0.68494 3.15667,0.56077 0.20677,-0.0238 0.19147,-0.35438 -0.0163,-0.3636 -0.97384,-0.044 -1.87656,-0.19666 -2.78173,-0.50359 0.59514,-0.29644 1.24809,-0.4204 1.93178,-0.43527 z m -4.59113,-1.24964 c -0.34813,-0.66762 -0.89281,-2.28572 -0.26869,-2.95747 1.17254,-1.26262 1.95442,1.67539 2.03365,2.21891 0.084,0.57966 0.0121,1.1175 -0.0465,1.66386 -0.45514,-0.81174 -0.7904,-1.6285 -0.89858,-2.63242 -0.0203,-0.18714 -0.29473,-0.13151 -0.28357,0.0497 0.0676,1.09309 0.37778,2.3207 1.01874,3.26071 -0.016,0.0233 -0.0318,0.0466 -0.0479,0.0699 -0.60868,-0.45916 -1.14581,-0.97975 -1.5076,-1.67334 z m 4.88704,-4.36399 c -0.22039,-0.25464 -0.40284,-0.53751 -0.54139,-0.84478 -0.31196,-0.68967 -0.42841,-1.56148 -0.17794,-2.29036 0.15869,-0.46185 0.15364,-0.42273 0.71119,-0.31624 0.54782,0.10437 0.55739,0.081 0.66719,0.55325 0.0956,0.41277 0.10789,0.85331 0.0997,1.27511 -0.008,0.40686 -0.0698,0.79754 -0.15073,1.18425 -0.0343,-0.0861 -0.0698,-0.1719 -0.0988,-0.26079 -0.15777,-0.48873 -0.13909,-0.97647 -0.24353,-1.46873 -0.0307,-0.14479 -0.25352,-0.18164 -0.30102,-0.0255 -0.23375,0.77079 0.0356,1.73914 0.47213,2.49512 -0.009,0.0341 -0.0168,0.0681 -0.0253,0.10249 -0.14128,-0.13278 -0.28266,-0.25493 -0.41132,-0.40382 z m 1.11949,1.14188 c 0.001,-1e-4 0.003,-7.5e-4 0.004,-5.4e-4 0.58955,0.79526 1.62627,1.18252 2.59539,1.0926 0.22326,-0.0208 0.20752,-0.38838 -0.0179,-0.3932 -0.85609,-0.0195 -1.49123,-0.31019 -2.10657,-0.80592 0.54411,-0.10339 1.0982,-0.13381 1.65377,-0.0546 0.37317,0.0529 0.74304,0.15047 1.09379,0.28939 0.24174,0.0935 0.47227,0.20957 0.69141,0.34869 0.37659,0.1549 0.44292,0.40794 0.19901,0.75909 0.0431,0.41816 -0.13598,0.61488 -0.53651,0.5906 -0.25364,0.0224 -0.50699,0.0247 -0.76082,0.007 -0.41185,-0.0236 -0.82832,-0.0837 -1.21889,-0.21986 -0.88381,-0.30792 -1.25965,-0.83598 -1.63083,-1.57452 0.0115,-0.0123 0.0228,-0.0255 0.0343,-0.0384 z m 3.01975,-6.24028 c -0.0962,-0.72314 -0.007,-2.3253 1.02729,-2.44341 1.23471,-0.141 0.93827,1.07155 0.72347,1.59919 -0.14845,0.36431 -0.40024,0.71254 -0.59987,1.05472 -0.0852,0.14579 -0.17338,0.29121 -0.26093,0.4375 -0.0217,-0.6678 0.0452,-1.32301 0.27001,-2.01425 0.0582,-0.17938 -0.1924,-0.26133 -0.27117,-0.0969 -0.3936,0.82411 -0.57324,1.81993 -0.41727,2.74102 -0.24983,-0.37757 -0.40809,-0.80146 -0.47146,-1.27788 z m 1.2383,2.1067 c 0.60655,-0.1604 1.20244,-0.30071 1.84249,-0.29579 0.40725,0.003 0.84396,0.0527 1.22927,0.19096 0.32157,0.11541 0.71822,0.53521 0.68663,0.90565 -0.0209,0.24527 -0.50193,0.52653 -0.67689,0.60326 -0.63978,0.28019 -1.40813,0.17313 -2.00795,-0.15753 -0.45963,-0.25275 -0.70853,-0.62149 -0.96654,-1.02329 0.004,0.003 0.005,0.007 0.008,0.0107 0.82415,0.68886 1.91301,0.97177 2.95294,0.66862 0.19132,-0.0558 0.14952,-0.35539 -0.055,-0.31276 -0.97627,0.20388 -1.94465,0.0349 -2.74123,-0.57905 -0.11701,-0.0906 -0.2385,0.0481 -0.19849,0.16108 -0.0321,-0.0501 -0.0642,-0.10021 -0.0972,-0.15083 0.008,-0.007 0.0159,-0.0139 0.0238,-0.0203 z m 4.09127,-4.51184 c 0.57901,-0.47108 1.66853,-0.9942 2.44772,-0.76315 1.86212,0.55243 -0.33769,1.99952 -1.00703,2.26411 -0.76578,0.3025 -1.55201,0.34065 -2.33738,0.20012 0.78972,-0.49259 1.5995,-0.95169 2.39779,-1.43009 0.17088,-0.10309 0.0532,-0.38335 -0.1326,-0.2888 -0.84559,0.43096 -1.63607,0.94241 -2.41275,1.48638 -0.002,0.002 -0.003,0.005 -0.005,0.006 0.26611,-0.5455 0.54549,-1.06446 1.0498,-1.47464 z m -10.11377,19.90378 c 0.12358,-1.26407 -0.92888,-1.87269 -2.05987,-1.82052 -1.05181,0.0487 -2.18597,0.31416 -3.07528,0.91054 0.78656,-1.61848 1.65841,-3.19818 2.64534,-4.73248 0.87205,0.9393 2.20261,1.46552 3.47044,1.48488 1.0172,0.0153 2.36001,-0.2993 2.59735,-1.46325 0.28106,-1.37851 -1.29441,-1.65774 -2.30409,-1.71698 -1.04456,-0.0617 -2.07155,0.0406 -2.97183,0.51205 0.91532,-1.32292 1.8939,-2.60228 2.938,-3.82619 0.348,0.86796 1.3603,1.46565 2.22917,1.67819 0.90176,0.22095 2.52528,0.41453 3.09856,-0.55627 0.53787,-0.91119 -0.35859,-1.64004 -1.12938,-1.97636 -1.02227,-0.44651 -2.13014,-0.5169 -3.19472,-0.28368 0.26681,-0.29243 0.53615,-0.58264 0.81109,-0.86807 0.78075,-0.81137 1.61055,-1.55815 2.45278,-2.28887 0.51325,1.72921 3.55355,2.35872 4.63322,0.89127 0.69733,-0.94796 -0.15388,-1.78124 -1.08502,-2.00515 -0.73653,-0.17694 -1.56638,-0.16939 -2.31536,0.0539 0.64292,-0.54994 1.28485,-1.10275 1.90943,-1.67934 0.0161,-0.006 0.0311,-0.0131 0.0444,-0.0241 1.25022,0.34531 2.60822,0.16066 3.72478,-0.5089 0.74717,-0.44789 1.95507,-1.51719 1.30155,-2.49273 -0.58163,-0.86857 -2.19486,-0.58988 -2.98932,-0.25449 -1.2234,0.51661 -1.87986,1.47082 -2.21508,2.66433 -0.12499,0.0498 -0.20333,0.17796 -0.19835,0.30343 -0.79075,0.48968 -1.56036,1.04078 -2.30757,1.63865 0.23588,-0.39259 0.45563,-0.79649 0.67769,-1.18155 0.27345,-0.47483 0.58417,-0.98082 0.59296,-1.54835 0.0135,-0.88747 -0.66014,-1.57585 -1.56404,-1.39401 -2.04001,0.41015 -1.73667,3.38765 -0.62995,4.70674 -0.0349,0.0763 -0.0732,0.15162 -0.10433,0.22977 -0.009,0.0233 -0.0117,0.0451 -0.0125,0.0664 -1.12619,0.99214 -2.19293,2.08506 -3.1998,3.22346 0.31338,-1.04634 0.35861,-2.26326 0.11738,-3.25756 -0.22895,-0.94301 -1.29993,-1.8728 -2.16681,-0.97493 -0.80209,0.83131 -0.6524,2.31952 -0.22999,3.28842 0.19398,0.44389 0.84399,1.47907 1.50732,1.80634 0.004,0.005 0.008,0.0107 0.0113,0.0165 -1.00339,1.19427 -1.93477,2.42402 -2.79391,3.63811 0.0204,-0.76105 -0.12842,-1.55044 -0.3429,-2.19107 -0.30964,-0.92509 -1.13551,-2.54788 -2.36761,-1.90895 -1.09277,0.56692 -0.93286,2.21617 -0.61649,3.18263 0.35865,1.09656 1.13268,2.09937 2.17515,2.60616 -1.13949,1.74355 -2.17727,3.57875 -3.08413,5.47483 -0.0323,-0.0251 -0.0641,-0.051 -0.0956,-0.0768 0.11449,-1.18423 -0.40768,-2.64774 -1.02783,-3.59037 -0.4847,-0.73769 -1.53877,-1.42324 -2.34797,-0.69047 -0.84976,0.77027 -0.16456,2.25511 0.30889,3.015 0.64806,1.03983 1.59395,1.83095 2.74904,2.20862 -1.00124,2.21902 -1.80754,4.52016 -2.34775,6.86714 -0.0554,0.24168 0.29138,0.38252 0.37388,0.13357 0.76174,-2.28801 1.59747,-4.52238 2.56854,-6.69104 1.36693,1.78408 5.57186,2.13849 5.83947,-0.5981" />
      <path
         inkscape:connector-curvature="0"
         id="path124"
         style="fill:#fae88e;fill-opacity:1;fill-rule:nonzero;stroke:none;stroke-width:0.03527778"
         d="m 64.269699,117.00681 c -0.26937,0.72273 0.12847,1.84002 0.46446,2.47532 0.37046,0.70086 0.87039,1.16666 1.50606,1.53088 -0.51058,-0.60773 -0.89337,-1.32766 -1.0594,-2.10521 -0.0528,-0.24567 0.28961,-0.31767 0.37103,-0.0906 0.24674,0.69039 0.54862,1.32885 0.94845,1.92989 -0.0301,-0.68326 -0.11576,-1.35815 -0.31499,-2.01799 -0.12933,-0.42732 -0.29197,-0.84678 -0.49156,-1.24622 -0.23692,-0.47379 -0.99423,-1.62944 -1.42408,-0.47617 z m 2.83002,4.46001 c 0.86331,0.57714 1.83541,0.61256 2.8445,0.39048 0.47378,-0.10393 0.95356,-0.24343 1.37488,-0.48922 0.57691,-0.33646 1.41662,-1.19894 0.21043,-1.34713 -0.80098,-0.0981 -1.69504,0.0796 -2.45888,0.31467 -0.50872,0.15667 -0.95514,0.39945 -1.39852,0.64747 0.78274,0.026 1.54984,-0.0317 2.34047,-0.19674 0.20343,-0.0429 0.26599,0.24282 0.0752,0.30848 -0.93755,0.32304 -1.97028,0.41304 -2.95172,0.24843 -0.012,0.0415 -0.0238,0.0825 -0.0365,0.12366 z m -2.84602,4.76567 c -0.35779,-0.30372 -0.76039,-0.63632 -1.19514,-0.82583 -0.73161,-0.31856 -1.05504,0.15446 -0.70239,0.87709 0.72711,1.48954 2.02246,1.91461 3.48727,2.12508 -0.0591,-0.0278 -0.10553,-0.0737 -0.13173,-0.12689 -0.74201,-0.23773 -1.42108,-0.61682 -1.99434,-1.15614 -0.15387,-0.14483 0.0792,-0.34993 0.23481,-0.22093 0.56036,0.46416 1.15159,0.84307 1.80792,1.13398 0.004,-0.006 0.009,-0.0117 0.0138,-0.0168 -0.42642,-0.66389 -0.91036,-1.27193 -1.52024,-1.78978 z m 3.33411,1.22871 c 0.46636,-0.23896 0.91454,-0.52947 1.32753,-0.85174 0.20069,-0.15661 0.46283,0.10743 0.27559,0.29289 -0.68248,0.67611 -1.77483,1.4509 -2.79099,1.42746 0.006,0.0582 0.0108,0.11657 0.0156,0.17486 0.67135,-0.0486 1.33394,-0.0718 1.99731,-0.24701 0.37587,-0.0991 0.77356,-0.22257 1.11767,-0.40047 0.26382,-0.12805 0.50301,-0.29307 0.71806,-0.49505 0.52938,-0.37778 0.54108,-0.71386 0.0351,-1.00744 -0.46385,-0.50536 -0.61527,-0.37804 -1.21796,-0.16277 -0.34983,0.1248 -0.6916,0.28605 -1.01255,0.47271 -0.56148,0.32603 -1.04408,0.74097 -1.4718,1.217 0.33025,-0.14843 0.68494,-0.25544 1.00629,-0.42038 z m 4.70065,-10.47552 c 0.77077,0.27052 2.13631,0.60202 2.57363,-0.20597 0.33307,-0.31309 0.27272,-0.55054 -0.18045,-0.71243 -0.17815,-0.12459 -0.36411,-0.23569 -0.55848,-0.33293 -0.36192,-0.18027 -0.7609,-0.31118 -1.15744,-0.38571 -0.6941,-0.13052 -1.34845,-0.0578 -2.00839,0.0801 0.71267,0.26077 1.41444,0.47028 2.21837,0.58589 0.21822,0.0318 0.2273,0.35394 -0.006,0.35253 -0.95031,-0.006 -2.01559,-0.24938 -2.8662,-0.74155 -0.008,0.009 -0.0168,0.0179 -0.024,0.0279 0.57089,0.5792 1.23587,1.0608 2.00974,1.33235 z m 3.76853,-8.80986 c 0.13151,-0.17932 0.40167,-0.0194 0.2965,0.1805 -0.43651,0.83039 -0.86592,1.65391 -1.26435,2.50252 0.0574,-0.0299 0.11381,-0.0608 0.17179,-0.0895 0.45179,-0.51422 0.89275,-1.03917 1.24409,-1.62858 0.28946,-0.48708 1.57203,-3.75291 -0.14583,-2.93638 -1.49943,0.71284 -1.81699,2.99461 -1.59031,4.55371 0.29327,-0.91261 0.72282,-1.81166 1.28812,-2.58223 z m 3.29868,4.82788 c 0.58397,-0.24832 0.31003,-0.36221 -0.036,-0.62945 -0.41557,-0.32075 -1.25614,-0.53293 -1.77356,-0.66328 -0.68524,-0.17221 -1.31438,-0.18555 -1.95191,-0.0887 0.86012,0.35918 1.70296,0.71077 2.61209,0.95481 0.2208,0.0592 0.12305,0.388 -0.0965,0.33897 -0.90316,-0.20162 -1.83684,-0.47589 -2.67229,-0.89729 1.13435,0.77303 2.66132,1.51917 3.91818,0.98498 z m 0.37368,-3.42548 c 0.42631,-0.14186 0.8819,-0.22352 1.31567,-0.29567 0.58913,-0.0974 1.23921,-0.19104 1.83315,-0.11241 0.11008,0.0145 0.15262,0.1862 0.0232,0.21027 -0.58611,0.10871 -1.18548,0.12757 -1.77325,0.24467 -0.27919,0.0555 -0.55226,0.13379 -0.82444,0.21388 0.4498,0.19735 0.90717,0.37007 1.40523,0.46304 0.90181,0.16856 2.91118,0.0198 2.39238,-1.4409 -0.73444,-2.06641 -3.47679,-0.22151 -4.56357,0.62684 0.064,0.0307 0.12783,0.06 0.19166,0.0902 z m -8.9618,2.71761 c 0.10258,-0.45214 0.39101,-1.29503 0.29896,-1.72731 -0.14161,-0.66563 -0.79931,-0.6823 -1.19936,-0.11058 -0.95906,1.37134 -0.86471,2.94982 -0.24389,4.37178 -0.005,-0.72406 0.0356,-1.45068 0.19653,-2.1568 0.0298,-0.13018 0.2447,-0.10015 0.2336,0.0348 -0.0656,0.79228 -0.17439,1.57761 -0.23249,2.36989 0.0281,-0.0345 0.072,-0.0504 0.12646,-0.0363 0.004,-0.006 0.009,-0.0106 0.0132,-0.016 -0.002,-0.006 -0.006,-0.011 -0.008,-0.0173 l -0.0112,-0.0411 c -0.0391,-0.15429 0.11725,-0.27264 0.2552,-0.22791 0.004,-0.006 0.009,-0.0107 0.0142,-0.0158 -0.1812,-0.27632 0.49276,-2.14746 0.55631,-2.4276 z m -6.76461,3.78001 c 0.81196,-0.86574 1.72756,0.10794 2.11647,0.8551 0.53345,1.02474 0.81745,2.17229 0.84148,3.32555 0.60248,-1.61193 1.42211,-3.13958 2.44025,-4.51502 -0.793,-1.02373 -1.04989,-2.40918 -0.83906,-3.67551 0.16693,-1.00565 0.83369,-2.79237 2.07649,-2.91058 1.13409,-0.10841 1.09488,1.12488 0.97638,1.90642 -0.14267,0.94067 -0.35871,1.86685 -0.66559,2.76788 -0.0139,0.0402 -0.0276,0.0881 -0.0417,0.13775 1.0022,-1.03036 2.13218,-1.93548 3.38139,-2.6701 -0.36277,-1.28138 -0.24478,-2.64839 0.33999,-3.8532 0.38449,-0.79185 1.36522,-2.30319 2.43947,-2.15604 1.05829,0.14488 0.87864,1.57849 0.70281,2.32059 -0.2382,1.00601 -0.79924,1.91548 -1.49282,2.70004 0.86663,-0.35173 1.7766,-0.62877 2.72777,-0.81877 -0.0298,-0.0759 -0.0196,-0.16449 0.0642,-0.23717 0.97259,-0.84602 2.22197,-1.76682 3.56023,-1.81659 0.98048,-0.0367 2.05746,0.60192 2.14558,1.65874 0.0866,1.03767 -0.86904,1.74248 -1.80521,1.86108 -1.1056,0.13975 -2.40732,-0.23753 -3.34257,-0.9299 -0.0796,0.0204 -0.15835,0.0425 -0.23844,0.0593 -0.1412,0.0295 -0.2434,-0.11715 -0.20681,-0.22951 -0.90815,0.32358 -1.78848,0.68764 -2.63617,1.09509 0.65892,0.0283 1.32318,0.18057 1.92883,0.38445 0.56841,0.19114 2.71539,0.75051 2.20051,1.81484 -0.41046,0.84872 -2.32725,0.70494 -3.0385,0.57881 -1.17181,-0.20739 -2.2807,-0.7841 -2.94627,-1.77564 -1.33904,0.80757 -2.56892,1.75468 -3.6574,2.87047 0.98733,-0.26506 2.09595,-0.13911 3.02771,0.2381 0.721,0.29186 2.10021,1.02155 1.74498,2.01084 -0.34772,0.96951 -1.96129,0.91861 -2.7668,0.79338 -1.24831,-0.19364 -2.33808,-0.84792 -3.04198,-1.87148 -0.65132,0.80948 -1.23852,1.69474 -1.74888,2.66685 -0.27955,0.53192 -0.5255,1.07564 -0.74217,1.62767 0.79573,-0.42794 1.73725,-0.68081 2.53139,-0.80285 0.79294,-0.12158 2.76236,-0.38312 2.85244,0.85167 0.0844,1.15734 -1.60328,1.86382 -2.49103,2.08129 -1.13551,0.27853 -2.56884,0.35543 -3.42977,-0.51589 -0.49595,1.78085 -0.69644,3.62797 -0.63035,5.47339 0.66032,-0.67224 1.43593,-1.20617 2.33524,-1.55123 0.73304,-0.28151 1.9452,-0.73679 2.3964,0.18624 0.48382,0.98959 -0.44661,1.94883 -1.2646,2.35702 -0.96008,0.47947 -2.2331,0.74365 -3.34269,0.59892 0.1564,1.32055 0.44344,2.63061 0.85594,3.90428 0.0632,0.1954 -0.26118,0.32463 -0.34003,0.13038 -0.52675,-1.29491 -0.86895,-2.64059 -1.04823,-4.0036 -1.86732,0.26424 -4.53995,-1.59392 -4.38537,-3.54745 0.0792,-0.99917 1.14766,-0.90837 1.81851,-0.54833 1.00622,0.53979 1.84649,1.42753 2.43091,2.42755 -0.0632,-1.86182 0.16738,-3.73113 0.66685,-5.52595 -1.1793,-0.0967 -2.08957,-1.40203 -2.49796,-2.40764 -0.36413,-0.8965 -0.71947,-2.51369 0.0381,-3.32127" />
      <path
         inkscape:connector-curvature="0"
         id="path128"
         style="fill:#fda172;fill-opacity:1;fill-rule:nonzero;stroke:none;stroke-width:0.03527778"
         d="m 136.4566,129.37256 c 0.51975,0.0696 1.10985,0.18864 1.53803,0.52041 0.79517,0.61542 0.96073,1.92237 -0.48776,2.0415 -1.34701,0.11099 -2.57768,-0.92985 -3.17388,-2.08681 0.76205,0.64506 1.88361,0.96067 2.83168,0.76668 0.23118,-0.0471 0.21652,-0.40797 -0.0268,-0.41737 -1.01436,-0.0386 -1.793,-0.27508 -2.59941,-0.78749 0.63808,-0.0863 1.27008,-0.12414 1.91818,-0.0369 z m 2.88194,-7.71619 c 0.073,-0.15937 -0.19558,-0.2908 -0.27921,-0.13437 -0.4683,0.87619 -0.77421,1.87964 -0.77811,2.8822 -0.43357,-0.52779 -0.5141,-1.94962 -0.49235,-2.43189 0.0545,-1.19857 0.88267,-2.93859 2.32317,-2.78502 2.59126,0.27608 -0.21487,3.81714 -1.39342,5.14184 0.0553,-0.92182 0.21998,-1.79898 0.61992,-2.67276 z m -6.97102,4.90814 c -0.13762,-0.79705 -0.11138,-2.07688 0.4601,-2.72661 0.22032,-0.25102 0.89363,-0.34866 1.21604,-0.18229 0.18468,0.0954 0.3588,0.48832 0.44842,0.67971 0.23583,0.50406 0.28625,1.10189 0.24017,1.64886 -0.0741,0.87489 -0.44973,1.69296 -0.86935,2.46702 -0.28926,-0.79739 -0.35799,-1.61182 -0.11966,-2.46782 0.0614,-0.22057 -0.2601,-0.32987 -0.33909,-0.11217 -0.34411,0.94779 -0.30506,2.02205 0.1517,2.91725 -0.0166,0.0186 -0.0334,0.0361 -0.0498,0.0545 -0.5738,-0.64825 -0.98963,-1.41782 -1.13843,-2.27831 z m 12.43687,-5.51633 c 0.55718,-0.45517 1.2484,-0.81638 1.95448,-0.97019 1.11159,-0.24215 2.69525,-0.0483 2.99879,1.30214 0.37615,1.67246 -1.73948,1.98959 -2.89485,1.91204 -1.02394,-0.0688 -1.95785,-0.39924 -2.83446,-0.89684 1.15048,-0.54488 2.34796,-0.87633 3.63367,-1.02598 0.20872,-0.024 0.18723,-0.36808 -0.0239,-0.3682 -1.33455,8e-4 -2.62118,0.35491 -3.7755,1.00001 0.2557,-0.38749 0.69695,-0.75226 0.94184,-0.95296 z m -2.66621,5.20209 c -1.01627,-0.0163 -1.98259,-0.29658 -2.79456,-0.88357 1.8254,-0.31249 4.24171,0.007 5.10641,1.73635 1.28031,2.56045 -2.59111,1.74127 -3.44601,1.23257 -1.02906,-0.61246 -1.70003,-1.55546 -2.0527,-2.67829 0.89493,0.7217 1.98632,1.12314 3.15774,1.0535 0.28753,-0.0173 0.33349,-0.45557 0.0291,-0.46056 z m -3.69835,-0.66653 c 0.0503,-0.0165 0.10516,-0.0306 0.15738,-0.046 -3e-4,0.0112 -0.003,0.0213 -9.1e-4,0.0337 0.24974,1.60423 1.30428,2.97189 2.78724,3.6438 1.15443,0.52315 3.27477,0.75996 3.8712,-0.71527 0.55169,-1.36434 -0.92627,-2.60156 -1.97505,-3.15903 -1.2014,-0.63835 -2.56483,-0.84054 -3.88538,-0.64185 1.20148,-0.74261 2.50306,-1.36467 3.9506,-1.82053 0.0487,-0.0157 0.0821,-0.0455 0.10428,-0.0812 1.47953,0.95138 3.4672,1.50773 5.19561,0.99765 1.45075,-0.42767 2.33953,-1.85392 1.46538,-3.24417 -0.87484,-1.39105 -2.73069,-1.41143 -4.1151,-0.89459 -0.6484,0.2417 -2.90901,1.61046 -2.76115,2.64385 -0.0229,0.039 -0.0361,0.0817 -0.0417,0.12561 -0.0307,0.0378 -0.0394,0.0827 -0.03,0.12761 -1.10114,0.25881 -2.14674,0.6511 -3.14359,1.14195 0.77581,-0.92049 1.43581,-1.94629 1.60531,-3.12859 0.18462,-1.28732 -0.70891,-2.24063 -2.0172,-1.95118 -1.41573,0.31264 -2.26234,1.8033 -2.36282,3.15517 -0.0521,0.70457 0.0572,2.53836 0.84778,3.03651 -1.18152,0.78287 -2.28275,1.70329 -3.30951,2.70665 0.30352,-0.78416 0.48156,-1.60348 0.35084,-2.45732 -0.12947,-0.84651 -0.82982,-2.49847 -1.9533,-2.19838 -1.0917,0.2914 -1.46968,1.9959 -1.4671,2.95137 0.004,1.30572 0.51606,2.50363 1.5262,3.33211 -1.04165,1.17963 -1.99701,2.42571 -2.87002,3.66975 -0.11425,0.16276 0.13448,0.39117 0.27109,0.23507 1.03349,-1.18089 2.04684,-2.35582 3.09072,-3.47582 0.34561,1.14737 1.10357,2.11012 2.20059,2.63214 0.89948,0.42805 2.35355,0.72295 3.03912,-0.21729 0.68829,-0.94353 0.12996,-2.1621 -0.75886,-2.71945 -1.03183,-0.64763 -2.43135,-0.73762 -3.6559,-0.5591 1.13649,-1.16165 2.32279,-2.2454 3.62369,-3.18735 0.0669,0.0639 0.15541,0.0991 0.26063,0.0643" />
      <path
         inkscape:connector-curvature="0"
         id="path132"
         style="fill:#fdb076;fill-opacity:1;fill-rule:nonzero;stroke:none;stroke-width:0.03527778"
         d="m 124.51378,125.75208 c 0.436,0.0157 0.95672,0.0415 1.35107,0.23018 0.67818,0.32473 1.10163,1.17907 0.23557,1.62366 -0.70282,0.36031 -1.60704,0.16551 -2.28386,-0.16206 -0.57061,-0.2765 -0.92673,-0.66904 -1.27771,-1.10444 0.67596,0.39032 1.46687,0.54848 2.2444,0.38162 0.22895,-0.0491 0.19002,-0.39092 -0.0477,-0.36403 -0.73487,0.0837 -1.45024,-0.0496 -2.07083,-0.42438 0.60995,-0.11178 1.2191,-0.20329 1.84906,-0.18055 z m -3.96836,-1.72602 c -0.37867,-0.56261 -1.13296,-1.98454 -0.68094,-2.70125 0.78048,-1.2388 1.54932,0.21114 1.72995,0.66355 0.14668,0.36669 0.20942,0.76505 0.2398,1.15681 0.0416,0.5385 -5.8e-4,1.07903 -0.0738,1.61463 -0.40793,-0.63012 -0.7071,-1.27722 -0.89648,-2.06766 -0.0536,-0.22318 -0.37947,-0.18906 -0.35922,0.0476 0.0591,0.68476 0.27761,1.38156 0.6272,1.99579 -0.21523,-0.21967 -0.41427,-0.4537 -0.58649,-0.70945 z m 5.82378,-4.32264 c 0.0361,-0.003 0.0724,-0.004 0.10829,-0.006 0.41807,0.77319 1.21268,1.28355 2.0745,1.42373 0.20378,0.0329 0.29958,-0.30272 0.0928,-0.35742 -0.71494,-0.18855 -1.25409,-0.55914 -1.70812,-1.0847 0.39644,-0.004 0.79227,0.0236 1.18682,0.0969 0.82422,0.15329 2.57459,0.80056 2.05386,2.03511 -0.47913,1.13568 -2.02243,0.40135 -2.65722,-0.0384 -0.70796,-0.48964 -1.04421,-1.06599 -1.32452,-1.83896 0.0572,-0.077 0.11584,-0.15336 0.17355,-0.23032 z m -0.93672,-0.74749 c -0.38429,-0.73199 -0.5667,-1.48181 -0.55847,-2.34214 0.002,-0.21448 -0.31155,-0.26725 -0.33984,-0.0425 -0.0642,0.50758 -0.0252,1.03068 0.10431,1.52996 -0.51619,-0.69881 -0.84291,-1.52061 -0.86882,-2.44508 -0.0159,-0.19309 -0.0103,-0.38547 0.0176,-0.57731 0.77929,-0.18876 1.25111,-0.0223 1.41513,0.50022 0.2172,0.36195 0.29868,0.86277 0.37413,1.26599 0.14115,0.75418 0.12814,1.50655 0.0248,2.25987 -0.0584,-0.0476 -0.11216,-0.0996 -0.16882,-0.14896 z m 5.71173,-5.09226 c 0.68847,-0.0106 1.36186,-0.10511 2.0565,-0.029 0.67725,0.0744 2.88947,0.68382 1.55229,1.75724 -1.3445,1.07953 -2.65347,0.0338 -3.53296,-1.05648 0.7863,0.38058 1.62739,0.58955 2.5278,0.60108 0.21187,0.003 0.26303,-0.31815 0.0421,-0.33461 -0.97278,-0.0737 -1.92453,-0.33029 -2.7844,-0.7855 0.0461,-0.051 0.0927,-0.10148 0.13867,-0.15273 z m -1.23085,-3.6575 c -0.10053,0.92439 -0.0279,1.91483 0.24352,2.82872 -0.33052,-0.40795 -0.6185,-0.84493 -0.83459,-1.33905 -0.33385,-0.7631 -0.8043,-2.43846 0.0889,-3.04481 1.18697,-0.8067 1.49542,0.63529 1.58941,1.21483 0.0848,0.52282 0.0828,1.07015 0.0464,1.59633 -0.0421,0.61194 -0.17277,1.19663 -0.32399,1.78075 -0.29762,-0.97703 -0.46558,-1.92164 -0.44041,-2.99028 0.006,-0.23437 -0.34267,-0.28956 -0.36927,-0.0465 z m 6.51411,-2.62864 c -0.17815,-0.49008 -0.38003,-0.95146 -0.44237,-1.48678 -0.0715,-0.61619 0.004,-1.2186 0.15453,-1.81668 0.0453,-0.18034 -0.25389,-0.25575 -0.31432,-0.0816 -0.26269,0.75865 -0.35502,1.73963 -0.1607,2.60661 -0.25512,-0.32046 -0.47114,-0.67126 -0.63126,-1.04896 -0.20046,-0.47276 -0.32283,-0.9905 -0.34029,-1.50485 -0.0161,-0.39171 0.0344,-0.77481 0.15169,-1.14899 0.11341,-0.61327 0.47538,-0.75049 1.08607,-0.41087 1.0066,0.1305 0.98823,0.29437 1.15443,1.26089 0.0772,0.45097 0.0953,0.90856 0.0618,1.36469 -0.0614,0.8315 -0.33241,1.56398 -0.67807,2.30263 -0.0142,-0.0118 -0.0276,-0.0241 -0.0415,-0.0361 z m 4.11528,-3.38523 c -0.0835,-0.33936 -0.17268,-0.67744 -0.18482,-1.03825 -0.01,-0.29339 0.0124,-0.58752 0.0591,-0.87705 0.0117,-0.0734 0.14889,-0.6694 0.21744,-1.00622 0.0205,0.0118 0.0429,0.0207 0.0708,0.0205 0.0168,-1.6e-4 0.034,-5.7e-4 0.0509,-6.5e-4 0.0413,-2.9e-4 0.0915,-0.0403 0.10256,-0.0796 0.0275,-0.0968 0.0315,-0.13433 -0.002,-0.22858 -0.0309,-0.0859 -0.12521,-0.10602 -0.2028,-0.0846 -0.55351,0.15282 -0.67956,1.35785 -0.72451,1.83265 -0.016,0.16921 -0.0265,0.35066 -0.0288,0.53643 -0.21949,-0.3892 -0.38633,-0.80366 -0.4471,-1.29554 -0.10292,-0.83208 0.0852,-2.270665 0.99026,-2.645485 1.63402,-0.67728 1.53779,1.784585 1.28232,2.689475 -0.21049,0.74536 -0.73639,1.33989 -1.0069,2.04073 -0.0585,0.0454 -0.11747,0.0909 -0.17599,0.1363 z m 5.55476,-5.077589 c 0.29082,-0.60853 0.6917,-1.0868 1.13293,-1.5879 0.1306,-0.14875 -0.0918,-0.34897 -0.24212,-0.23766 -0.63585,0.4696 -1.28917,1.29922 -1.62245,2.16715 -0.0723,-1.32705 0.26921,-2.70559 1.43605,-3.48241 0.86768,-0.577674 1.85055,0.15101 1.69511,1.12204 -0.0903,0.56539 -0.44478,1.07464 -0.78512,1.5193 -0.58103,0.7588 -1.32446,1.28195 -2.04036,1.885989 0.13382,-0.46387 0.21199,-0.939019 0.42596,-1.386509 z m -0.0857,2.006629 c 0.74354,0.86575 1.7052,1.47328 2.81117,1.80309 0.198,0.0589 0.32301,-0.22938 0.12174,-0.30398 -0.93073,-0.34571 -1.73464,-0.86 -2.43598,-1.52808 0.52904,-0.0204 1.05604,-0.003 1.5812,0.10379 0.61195,0.1238 1.89407,0.48031 2.27308,1.0266 0.8366,1.20706 -0.53519,1.27746 -1.10414,1.24934 -0.49252,-0.024 -0.9815,-0.14017 -1.43451,-0.33422 -0.89531,-0.3835 -1.60297,-0.99529 -1.80932,-1.97038 -0.004,-0.0165 -0.0132,-0.03 -0.0194,-0.0452 0.006,-7e-4 0.0108,-7.8e-4 0.0161,-10e-4 z m 9.32708,-5.960359 c 0.13922,-0.09796 0.004,-0.295449 -0.14319,-0.246564 -0.86158,0.285251 -1.92048,1.107344 -2.41009,2.036804 0.19863,-1.715577 1.54015,-4.319352 3.41961,-3.293531 2.01077,1.097158 -1.32249,2.806051 -2.87473,3.524801 0.14837,-0.26392 0.29807,-0.52842 0.49729,-0.76482 0.43428,-0.51581 0.96644,-0.872731 1.51109,-1.256713 z m -2.00548,2.70523 c 0.0825,0.028 0.16299,0.0593 0.24479,0.0887 0.37995,0.98815 1.19358,1.87853 2.08919,2.369419 0.19004,0.10389 0.32097,-0.18716 0.1762,-0.31322 -0.46771,-0.406849 -0.93673,-0.807319 -1.31928,-1.299489 -0.13023,-0.16775 -0.24221,-0.34476 -0.34957,-0.52447 0.41452,0.17438 0.81867,0.37108 1.20882,0.60323 0.32699,0.19454 0.64856,0.40624 0.94717,0.64246 0.25906,0.191 0.49643,0.40644 0.71241,0.646069 0.26264,1.06315 0.0279,1.56561 -0.70425,1.50788 -1.89087,0.38497 -3.0792,-2.092549 -3.2744,-3.643499 0.0895,-0.0262 0.1792,-0.0516 0.26891,-0.077 z m 8.86488,-2.822213 c 0.80801,-0.193195 2.38912,-0.288554 2.9713,0.457287 0.52404,0.671726 -0.0335,1.541766 -0.71041,1.916396 -0.67725,0.37484 -1.41237,0.093 -2.09734,-0.14789 -0.73047,-0.2569 -1.4609,-0.53213 -2.20482,-0.75402 0.19425,-0.0731 0.59976,-0.26063 0.67426,-0.28318 0.31995,-0.097 0.64452,-0.17079 0.97377,-0.22587 0.63952,-0.10706 1.29017,-0.14281 1.93741,-0.10759 0.23675,0.0127 0.28654,-0.336775 0.0465,-0.369268 -0.84799,-0.114297 -1.67149,-0.09351 -2.50485,0.115341 -0.20409,0.05122 -0.46668,0.108194 -0.72108,0.191817 0.48514,-0.363988 1.0209,-0.646106 1.63526,-0.793023 z m -21.05081,9.610872 c 0.6307,0.95962 1.41552,1.73749 2.41941,2.32073 0.19356,0.11234 0.40965,-0.15635 0.21377,-0.2861 -0.83134,-0.55194 -1.55694,-1.21502 -2.15154,-2.00391 0.58014,0.057 1.14404,0.19708 1.67849,0.45921 0.90883,0.44579 2.41326,1.85834 0.90927,2.66513 -0.99441,0.53354 -2.10507,-0.26023 -2.61796,-1.09113 -0.42166,-0.68287 -0.4263,-1.33089 -0.45567,-2.06421 0.001,2e-5 0.003,3.5e-4 0.004,5.3e-4 z m -1.88722,5.02917 c -0.85065,-0.34669 -1.51573,-0.86739 -2.09869,-1.5291 0.75503,0.1217 1.54864,0.26259 2.19691,0.67306 0.82158,0.51978 1.72698,2.19508 0.34884,2.75499 -0.89029,0.36159 -1.9771,-0.77941 -2.38291,-1.41429 -0.38231,-0.59777 -0.4769,-1.22462 -0.59287,-1.88312 0.58181,0.82474 1.43137,1.41167 2.3939,1.73448 0.21928,0.0736 0.35296,-0.24719 0.13482,-0.33602 z m -12.26651,17.92951 c 0.62735,-0.9091 -0.12584,-1.92413 -1.03003,-2.22703 -1.08948,-0.36494 -2.52412,-0.24888 -3.6339,0.19068 -0.003,-0.0105 -0.01,-0.0206 -0.0148,-0.0305 1.09582,-1.70067 2.23384,-3.3689 3.42624,-4.99582 0.63598,1.76835 3.60083,3.62675 4.85861,1.7941 0.60315,-0.87872 0.0919,-2.00029 -0.70706,-2.53584 -0.88954,-0.59698 -2.05602,-0.72171 -3.13368,-0.6233 1.16729,-1.53329 2.38123,-3.0318 3.64997,-4.49021 0.51983,0.88759 1.38059,1.63331 2.37287,1.87765 0.98326,0.24195 2.21289,-0.0231 2.78646,-0.92441 0.55484,-0.87247 -0.0523,-1.69587 -0.87991,-2.05954 -0.85957,-0.37774 -2.08065,-0.47614 -3.07373,-0.24466 1.33028,-1.466 2.71306,-2.89372 4.16555,-4.27192 0.10533,-0.0996 0.21268,-0.19778 0.31853,-0.2973 0.2921,1.94154 2.47865,4.57614 4.22618,3.16895 0.82534,-0.66444 0.8932,-1.83456 0.32276,-2.68552 -0.77093,-1.14954 -2.16641,-1.40062 -3.4526,-1.49716 1.02865,-0.93528 2.08248,-1.84901 3.16464,-2.72801 0.0182,0.0104 0.0377,0.0176 0.0581,0.0206 -0.11839,2.11061 2.43113,4.67601 4.37432,3.16648 0.92721,-0.72018 0.82361,-1.89083 0.0653,-2.68977 -0.88196,-0.9289 -2.18406,-1.32439 -3.43881,-1.34307 1.26725,-0.98285 2.57195,-1.91461 3.92744,-2.76196 0.13242,1.13701 1.20213,1.94649 2.21804,2.3605 1.00447,0.40905 2.83677,0.73099 3.56102,-0.34668 0.72266,-1.07511 -0.49401,-1.84954 -1.35887,-2.25711 -0.96694,-0.45563 -2.07158,-0.66006 -3.13492,-0.5317 1.86601,-1.056129 3.79877,-1.887629 5.7975,-2.516219 0.10953,1.29276 0.76105,2.528299 1.79445,3.326689 0.83065,0.64135 2.09608,1.1524 3.05161,0.46639 2.26715,-1.6284 -1.39931,-3.501709 -3.3433,-4.224649 1.71203,-0.4462 3.46971,-0.75366 5.27287,-0.93522 0.0279,0.0721 0.0793,0.13494 0.15955,0.17045 0.94153,0.41773 1.95459,0.69461 2.93367,1.01172 0.58582,0.18965 1.21545,0.45069 1.83992,0.31737 1.04398,-0.22232 2.47131,-1.64041 1.91986,-2.778116 -0.5393,-1.112297 -2.15415,-1.326159 -3.23804,-1.212196 -1.34038,0.140255 -2.66705,0.870547 -3.34584,2.054512 -0.072,-0.006 -0.13382,0.0106 -0.18033,0.0485 -1.19602,3e-5 -2.38036,0.11115 -3.55044,0.31257 0.58965,-0.39967 1.10539,-0.881862 1.45612,-1.469028 0.53684,-0.899127 0.25829,-1.786007 -0.73983,-2.195514 -2.45253,-1.005196 -4.75221,2.321476 -4.1653,4.529422 -1.46743,0.48051 -2.90356,1.09572 -4.30376,1.80494 0.48265,-0.56452 0.87086,-1.19373 1.06042,-1.81476 0.31418,-1.02772 -0.0966,-2.416235 -1.33274,-2.522585 -1.27371,-0.109821 -2.23977,1.239115 -2.63674,2.279305 -0.42756,1.12156 -0.44148,2.42041 0.0791,3.507469 0.006,0.0225 0.0147,0.043 0.0271,0.0608 0.008,0.0164 0.0131,0.0332 0.0217,0.0493 -1.13771,0.69928 -2.24152,1.45664 -3.31436,2.2458 0.38437,-0.77049 0.64654,-1.58276 0.62494,-2.49362 -0.0259,-1.086129 -0.67669,-2.419629 -1.96808,-2.139209 -1.26786,0.2751 -1.81171,1.799119 -1.79889,2.949489 0.012,1.04113 0.43128,2.25598 1.28435,2.92103 0.0144,0.0491 0.0313,0.0972 0.0487,0.14488 -0.92291,0.73665 -1.81365,1.49288 -2.6739,2.25502 0.31586,-0.93927 0.39561,-1.9681 0.23909,-2.93365 -0.18363,-1.13163 -0.70839,-2.70496 -2.15779,-2.30589 -1.33482,0.36773 -1.60205,2.08699 -1.40902,3.25375 0.21141,1.27843 0.93007,2.34216 1.99378,2.99953 0.0138,0.0211 0.0297,0.0399 0.0443,0.0603 -3e-4,10e-4 -0.001,0.002 -0.002,0.004 -0.009,0.0362 -0.0154,0.0745 -0.0221,0.11238 -0.14615,0.13448 -0.29362,0.26898 -0.43643,0.40315 -1.46855,1.37996 -2.89801,2.81889 -4.28217,4.30753 0.44647,-2.11254 0.5209,-5.37792 -1.73671,-4.85785 -1.15586,0.2663 -1.44111,1.54356 -1.30745,2.55678 0.17759,1.34533 0.87666,2.59264 1.93112,3.4354 -0.0675,0.0562 -0.11459,0.13314 -0.12345,0.22181 -1.35605,1.52084 -2.66028,3.09346 -3.90703,4.71078 0.13092,-1.21774 -0.0203,-2.46698 -0.5294,-3.59157 -0.35775,-0.79099 -1.40069,-1.82895 -2.24348,-0.94016 -0.66532,0.70143 -0.28327,2.26007 0.0285,3.03497 0.36526,0.9071 0.97663,1.66467 1.78196,2.17786 0.0263,0.0372 0.0501,0.0759 0.078,0.11185 0.0619,0.0793 0.14268,0.0871 0.20948,0.0576 0.006,0.003 0.0117,0.007 0.0174,0.011 -1.12474,1.49892 -2.1959,3.03752 -3.2104,4.60941 0.0843,-0.94303 0.0362,-1.89719 -0.37295,-2.75726 -0.37008,-0.77697 -1.12991,-1.59122 -2.04138,-1.11761 -0.98482,0.51135 -0.89488,1.74609 -0.60672,2.6465 0.35913,1.12355 1.109,2.08712 2.10966,2.68001 -1.42819,2.32761 -2.72941,4.72501 -3.87257,7.18507 -0.0918,0.1976 0.20875,0.30687 0.30874,0.12385 1.21979,-2.23595 2.50268,-4.41994 3.84921,-6.55419 0.91241,1.65156 4.03804,2.922 5.25208,1.16304" />
      <path
         sodipodi:nodetypes="cccccccccccccccccccccccccccccccccccccccccccccccccccccccccccccccccccccccccccccccccccccccccccccccccccccccccccccccccccccccccccccccccccccccccccccccccccccccccccc"
         inkscape:connector-curvature="0"
         id="path136"
         style="fill:#fece7d;fill-opacity:1;fill-rule:nonzero;stroke:none;stroke-width:0.03527778"
         d="m 95.478144,126.39742 c 0.178249,-0.19001 -0.118896,-0.42816 -0.301334,-0.25798 -0.763148,0.7102 -1.720172,0.93204 -2.738364,0.93052 -0.03256,-4.7e-4 -0.06139,0.006 -0.08629,0.0172 2.18e-4,-0.0379 0.0014,-0.0764 0.0026,-0.11394 1.029902,-0.79052 5.165143,-3.97857 4.462963,-1.10897 -0.263733,1.07713 -1.604883,1.50705 -2.886681,1.54218 0.581818,-0.1936 1.114174,-0.54679 1.547402,-1.00909 z m -7.456997,-2.65372 c -0.03997,-0.22776 -0.07986,-0.45588 -0.119946,-0.68397 0.469723,-0.58515 0.881929,-0.65099 1.235698,-0.19689 0.429948,0.19386 0.786638,0.80906 1.038779,1.18343 0.385493,0.57232 0.637546,1.17117 0.810932,1.80482 -0.821656,-0.55936 -1.473855,-1.25228 -1.889607,-2.25364 -0.08836,-0.21355 -0.42398,-0.10148 -0.341907,0.11875 0.433686,1.1628 1.274112,2.24595 2.389563,2.82652 0.0053,0.0273 0.01157,0.0542 0.01607,0.0817 -1.334001,-0.64211 -2.643131,-1.24803 -3.139633,-2.88084 z m 8.827185,-4.05165 c -1.025835,0.16993 -2.047475,0.23158 -3.079329,0.15219 0.515435,-0.24814 1.044352,-0.47363 1.58536,-0.65033 1.018114,-0.33305 3.676147,-0.4884 2.874513,1.46045 -0.811374,1.97351 -3.58031,0.58694 -4.659699,-0.39192 1.128084,0.12767 2.248241,0.0938 3.364309,-0.15062 0.235525,-0.0519 0.154689,-0.45891 -0.08504,-0.41933 z m -4.369583,0.18209 c -0.751532,-0.63377 -1.372131,-1.33466 -1.817166,-2.21604 -0.18844,-0.37372 -0.345345,-0.7502 -0.454818,-1.15472 -0.0903,-0.27823 -0.142251,-0.56231 -0.156924,-0.85186 -0.119515,-0.80434 0.554634,-1.05678 2.022928,-0.75709 0.812959,0.80849 0.678753,2.3855 0.536481,3.72965 -0.323412,-0.66146 -0.602601,-1.3394 -0.806826,-2.06616 -0.06855,-0.2436 -0.435646,-0.11344 -0.370234,0.12859 0.254274,0.94278 0.602296,1.87502 1.098279,2.7193 -0.01543,0.17378 -0.02791,0.34018 -0.03273,0.49276 -0.0074,-0.008 -0.0098,-0.0175 -0.01907,-0.0244 z m 7.382191,-6.02948 c 0.17221,-0.073 0.08447,-0.31468 -0.0943,-0.2716 -1.115766,0.26801 -2.214882,0.35173 -3.327997,0.11987 0.559156,-0.2793 1.142845,-0.4761 1.788308,-0.54561 0.985044,-0.1057 3.803439,0.21579 2.733559,1.82348 -1.115298,1.67686 -3.631076,0.22886 -4.808632,-0.94444 1.234824,0.32219 2.521647,0.32186 3.709099,-0.18189 z m -5.266402,-5.45169 c 0.896549,-0.13368 1.488378,0.94138 1.575243,1.65924 0.06151,0.51043 -0.04705,1.02354 -0.16161,1.51855 -0.123381,0.53285 -0.305582,1.04608 -0.447332,1.57112 -3.03e-4,-0.002 -5.97e-4,-0.004 -0.0013,-0.006 -0.353576,-0.84705 -0.56256,-1.70362 -0.561476,-2.62529 -2.54e-4,-0.19647 -0.297384,-0.17228 -0.302292,0.0203 -0.02375,0.94225 0.1388,1.86309 0.554552,2.71282 0.05538,0.11297 0.189953,0.12109 0.266783,0.0649 -0.0096,0.0378 -0.02118,0.0752 -0.02972,0.11285 -0.04516,0.0657 -0.08929,0.13193 -0.133277,0.19792 -0.01709,0.0133 -0.03177,0.0289 -0.04593,0.0451 -1.003701,-1.51043 -2.929022,-4.9411 -0.713755,-5.2713 z m 5.644162,-2.69072 c 0.15583,-0.99222 0.70784,-2.49848 1.79885,-2.80122 2.12989,-0.59109 0.93859,2.40133 0.48636,3.18316 -0.27814,0.48089 -0.61211,0.90422 -0.97687,1.30127 0.002,-0.13368 0.008,-0.26717 0.0226,-0.40068 0.0633,-0.58965 0.27409,-1.11621 0.46979,-1.67001 0.0482,-0.13657 -0.13505,-0.29742 -0.23477,-0.15333 -0.50507,0.7296 -0.73793,1.72581 -0.67222,2.65266 -0.12775,0.12469 -0.2565,0.24856 -0.3901,0.36925 -0.0741,0.0491 -0.14793,0.0988 -0.2215,0.14934 -0.29455,-0.84812 -0.42424,-1.72476 -0.28207,-2.63045 z m 9.04334,-1.46477 c 0.94378,-0.44281 2.63574,-0.66147 3.0384,0.68389 0.3691,1.23377 -1.40839,2.12334 -2.33548,2.24106 -0.95295,0.12071 -1.78134,-0.4311 -2.51328,-0.97943 1.29747,-0.37822 2.61096,-0.61029 3.94505,-0.83461 0.26854,-0.0451 0.25448,-0.44911 -0.0283,-0.43052 -1.43804,0.0938 -2.85039,0.46602 -4.20956,0.9332 0.61968,-0.64692 1.28358,-1.22892 2.10301,-1.61359 z m -4.95869,4.63321 c 1.04748,0.16762 2.83326,0.91049 1.82645,2.28043 -0.70678,0.96174 -2.06367,0.66559 -2.93603,0.13873 -0.75658,-0.45686 -1.32021,-1.1163 -1.72927,-1.87688 0.82969,0.59319 1.85756,0.87855 2.88679,0.72051 0.24854,-0.0382 0.23209,-0.41783 -0.0257,-0.3962 -1.02779,0.0858 -2.0089,-0.17132 -2.8112,-0.77064 0.92124,-0.18291 1.84824,-0.24718 2.78919,-0.096 z m -11.380984,24.1348 c -0.568684,-1.35585 -0.602096,-3.60967 -0.600466,-4.95131 1.236069,0.35048 2.630372,0.05 3.769822,-0.509 1.04377,-0.51188 2.149526,-1.81198 1.237411,-2.97368 -0.951909,-1.21287 -2.765065,0.0181 -3.684464,0.63432 -0.169734,0.11347 -0.783706,0.50372 -1.289596,0.94495 0.0337,-1.1007 0.08392,-1.95838 0.106998,-2.17255 0.117022,-1.0792 0.302926,-2.15469 0.554402,-3.21449 1.357994,1.67456 5.481652,2.54134 5.959927,-0.32776 0.191059,-1.1445 -0.740996,-2.00127 -1.816094,-2.13876 -1.277483,-0.16317 -2.64754,0.48556 -3.790757,1.14552 0.312805,-1.05087 0.693576,-2.08048 1.156072,-3.07242 0.30425,-0.65199 0.64529,-1.27536 1.01025,-1.87826 0.008,-6.2e-4 0.0143,-0.005 0.02199,-0.007 1.426617,1.6399 5.477969,3.15658 6.210849,0.35064 0.33171,-1.26956 -0.87402,-1.98755 -1.953557,-2.17542 -1.158575,-0.20148 -2.353978,-0.0122 -3.398058,0.502 1.15357,-1.58821 2.528056,-2.97045 4.092455,-4.11016 0.52686,1.39446 1.58597,2.5966 3.00426,3.1265 1.16687,0.43614 2.64051,0.28023 3.27085,-0.93281 0.56757,-1.09265 -0.10954,-2.13212 -1.13878,-2.58424 -1.22942,-0.53987 -2.73247,-0.50632 -4.05315,-0.18097 -0.005,-0.05 -0.0107,-0.10014 -0.0161,-0.15018 1.53602,-0.96331 3.22478,-1.71489 5.04182,-2.21861 0.0406,-0.0109 0.0673,-0.0365 0.0859,-0.0665 0.0146,0.0123 0.0311,0.0211 0.0478,0.0294 -0.0815,0.1149 -0.0936,0.27452 0.0502,0.39412 0.006,0.004 0.0106,0.008 0.0165,0.014 -0.005,0.004 -0.008,0.008 -0.0116,0.0126 -0.10969,0.11873 0.0756,0.27061 0.18857,0.16115 0.005,-0.005 0.0113,-0.0115 0.0176,-0.0169 1.08414,0.85061 2.34629,1.42767 3.72452,0.90568 1.00722,-0.38158 2.31375,-1.21326 2.14397,-2.458 -0.14588,-1.07269 -1.18725,-1.7432 -2.20427,-1.75969 -1.61628,-0.0268 -3.12256,1.16514 -4.00821,2.4183 -0.0101,0.0144 -0.014,0.0289 -0.0202,0.044 -0.0281,-0.0169 -0.0604,-0.0268 -0.10024,-0.0197 -1.48917,0.27895 -2.90876,0.78505 -4.23662,1.47248 0.52491,-0.67788 0.94186,-1.44187 1.2258,-2.24256 0.37055,-1.04591 0.49655,-2.41763 -0.90949,-2.65192 -1.34495,-0.22416 -2.28296,1.15139 -2.674332,2.24821 -0.465847,1.30603 -0.385753,2.73764 0.199982,3.9802 -1.399997,1.01092 -2.659498,2.2296 -3.748294,3.58282 0.242223,-0.86387 0.354582,-1.77043 0.164862,-2.55113 -0.25347,-1.04166 -1.179831,-1.95941 -2.321653,-1.70513 -2.760261,0.61472 -0.483268,4.60852 0.803693,6.14307 -0.624394,0.98391 -1.164083,2.01498 -1.607353,3.07305 -0.05984,0.14288 -0.111102,0.28878 -0.167463,0.43276 0.03803,-0.93228 -0.05156,-1.85795 -0.458386,-2.64129 -0.458215,-0.88279 -1.491348,-1.74029 -2.526087,-1.22818 -0.973296,0.48143 -1.014178,1.69814 -0.817414,2.61531 0.349529,1.63007 1.392075,2.99743 2.771814,3.89701 0.06372,0.0413 0.126584,0.0311 0.17632,-0.003 -0.479455,1.87543 -0.731242,3.80958 -0.793476,5.74549 2.53e-4,0.0149 -6.08e-4,0.0296 -9.15e-4,0.0443 -0.283387,-1.23964 -0.91202,-2.39374 -1.81545,-3.29928 -0.592826,-0.59404 -1.7695,-1.67878 -2.425813,-0.59751 -0.637829,1.05057 0.12634,2.61587 0.823588,3.42939 0.770247,0.8984 1.956294,1.59188 3.157643,1.85955 -0.01766,0.13499 0.03412,0.27982 0.189897,0.36725 0.02396,0.0134 0.04878,0.0239 0.07302,0.037 0.03059,1.11383 0.117603,2.22674 0.278306,3.32711 0.105177,0.71897 0.02663,1.74318 0.832908,1.98823 0.07091,0.0219 0.144216,-0.03 0.177292,-0.0884" />
      <path
         inkscape:connector-curvature="0"
         id="path138"
         style="fill:#fddb83;fill-opacity:1;fill-rule:nonzero;stroke:none;stroke-width:0.03527778"
         d="m 82.645626,125.12998 c 0.182175,-0.0954 0.06018,-0.35866 -0.131323,-0.28906 -0.989187,0.36003 -1.89237,0.47361 -2.873152,0.55197 0.512462,-0.39523 1.045326,-0.76602 1.612381,-1.07523 0.593801,-0.32367 3.653353,-1.32926 3.294004,0.50802 -0.381809,1.95247 -3.161672,1.58243 -4.828741,1.11667 1.013653,-0.0282 2.068747,-0.36332 2.926861,-0.81235 z m -5.968105,-5.04789 c 0.828452,-0.75466 1.823905,-0.003 1.995336,0.88544 0.108473,0.56179 0.07058,1.15211 0.02116,1.71784 -0.06022,0.69035 -0.201976,1.37011 -0.282101,2.05674 -0.502566,-0.86204 -0.772517,-1.79645 -0.706521,-2.88158 0.01266,-0.20996 -0.303064,-0.24397 -0.325693,-0.0338 -0.148917,1.39136 0.198575,2.82798 1.093559,3.89957 -0.0055,0.0273 -0.0099,0.0546 -0.01344,0.0824 -1.485088,-0.8387 -3.29129,-4.35203 -1.781941,-5.7265 z m 6.916663,-2.33751 c 0.953737,-0.71858 2.854218,-0.55185 2.890116,0.95972 0.048,2.00632 -2.435255,2.12612 -3.949739,2.07462 0.845747,-0.76951 1.844129,-1.31736 2.935245,-1.65432 0.227608,-0.0705 0.110363,-0.46804 -0.12195,-0.40493 -1.177956,0.31985 -2.155238,0.89879 -3.010004,1.76694 -0.182319,-0.95291 0.572237,-2.22656 1.256386,-2.74205 z m -3.703475,15.12669 c -0.53018,-2.08249 -1.257818,-4.22095 -0.97825,-6.40093 0.0041,-0.0345 0.01374,-0.0663 0.01779,-0.10066 1.712987,0.66651 6.388478,1.18498 6.183784,-1.70766 -0.08036,-1.13952 -1.312041,-1.5749 -2.30495,-1.45075 -1.35519,0.16942 -2.618849,1.14824 -3.639146,2.0819 0.476865,-1.60509 1.454077,-2.909 2.723725,-4.05287 0.04061,0.0822 0.115744,0.14736 0.238579,0.15662 1.487292,0.11618 3.234405,0.15264 4.320129,-1.05062 0.790798,-0.8759 0.981697,-2.23712 0.03079,-3.07791 -0.918227,-0.81149 -2.341259,-0.71119 -3.262175,0.0293 -0.759163,0.61042 -1.766562,2.25548 -1.234859,3.25846 -0.0021,2.6e-4 -0.0045,0.002 -0.0067,0.002 -1.237137,0.71912 -2.106048,1.65337 -2.685141,2.71632 0.156014,-1.14467 0.157747,-2.33466 -0.268251,-3.23459 -0.436754,-0.92371 -1.34269,-1.35754 -2.274604,-0.84413 -1.18366,0.65178 -1.426212,2.19693 -1.088005,3.39483 0.343258,1.21496 1.426882,3.22264 2.749344,3.54742 -0.267755,2.25289 0.251131,4.71134 1.095531,6.84749 0.08181,0.20734 0.43803,0.1063 0.381555,-0.11459" />
      <path
         inkscape:connector-curvature="0"
         id="path128-3"
         style="fill:#c9fd99;fill-opacity:1;fill-rule:nonzero;stroke:none;stroke-width:0.03015784"
         d="m 32.821846,127.09954 c 0.325144,-0.3086 0.720928,-0.63753 1.171452,-0.74455 0.836189,-0.19912 1.794918,0.39177 1.097184,1.41979 -0.648711,0.95612 -2.001679,1.21692 -3.091594,0.99311 0.838116,-0.16138 1.649881,-0.7384 2.029335,-1.47351 0.09264,-0.17916 -0.155406,-0.36297 -0.292207,-0.20602 -0.569859,0.65444 -1.14493,1.04587 -1.918579,1.30776 0.284808,-0.47104 0.59869,-0.91197 1.004432,-1.29655 z m -3.589969,-6.0575 c -0.06693,-0.13409 -0.298472,-0.0259 -0.239237,0.11372 0.331985,0.78174 0.835779,1.52363 1.501001,2.06404 -0.583886,0.005 -1.573461,-0.70367 -1.882799,-0.97685 -0.76852,-0.67927 -1.48245,-2.16388 -0.607487,-3.04031 1.573808,-1.57667 2.425454,2.19068 2.674963,3.68574 -0.58391,-0.53129 -1.079407,-1.11145 -1.44646,-1.84639 z m -0.472621,7.27288 c -0.604347,-0.33597 -1.442139,-1.03998 -1.568043,-1.7689 -0.04888,-0.28131 0.247308,-0.78184 0.530997,-0.9072 0.162579,-0.0717 0.517508,0.0231 0.692962,0.0662 0.462015,0.11342 0.886979,0.40055 1.226329,0.72465 0.542601,0.51863 0.885598,1.2075 1.175714,1.90204 -0.685915,-0.23522 -1.264878,-0.62636 -1.706786,-1.24419 -0.113849,-0.15921 -0.359081,-0.004 -0.256551,0.16555 0.446262,0.73748 1.182241,1.28776 2.02312,1.46396 0.0034,0.021 0.0061,0.0417 0.0095,0.0624 -0.739285,0.0342 -1.474589,-0.10186 -2.127152,-0.46442 z m 2.999899,-11.23724 c -0.0041,-0.61503 0.126289,-1.26888 0.402684,-1.82136 0.435121,-0.86978 1.413703,-1.81988 2.47538,-1.2975 1.314987,0.6468 0.391159,2.2251 -0.280237,2.95252 -0.59504,0.64465 -1.316009,1.08899 -2.117454,1.40554 0.254486,-1.05807 0.676234,-2.03291 1.266331,-2.96897 0.096,-0.1518 -0.144561,-0.32208 -0.257892,-0.18161 -0.715364,0.8887 -1.16987,1.93506 -1.359698,3.04944 -0.12075,-0.37806 -0.12685,-0.86744 -0.129058,-1.1381 z m 2.032286,4.56525 c -0.555999,0.6677 -1.26094,1.16053 -2.087215,1.3861 0.771215,-1.38263 2.279918,-2.81969 3.894996,-2.46741 2.391064,0.52133 -0.230959,2.65873 -1.028159,2.95486 -0.95969,0.35641 -1.947284,0.29719 -2.883837,-0.0704 0.960442,-0.20857 1.813108,-0.71962 2.395149,-1.53667 0.142718,-0.20068 -0.124342,-0.46637 -0.290952,-0.26642 z m -2.427575,2.1041 c 0.01593,-0.0423 0.03605,-0.0864 0.05378,-0.12946 0.0075,0.006 0.01278,0.0131 0.02198,0.0188 1.201752,0.69434 2.677774,0.7261 3.92052,0.0995 0.967506,-0.48773 2.262542,-1.77204 1.600566,-2.96039 -0.612171,-1.09909 -2.228509,-0.77904 -3.162164,-0.38005 -1.069362,0.45722 -1.935341,1.25627 -2.511479,2.24181 0.150228,-1.19806 0.434398,-2.3981 0.907488,-3.60615 0.01571,-0.0408 0.01383,-0.079 0.0019,-0.11296 1.426927,-0.47444 2.863505,-1.49898 3.451158,-2.92307 0.493581,-1.19505 0.02103,-2.55173 -1.37323,-2.71568 -1.395183,-0.16397 -2.404304,1.06043 -2.802938,2.25916 -0.186951,0.56124 -0.488566,2.80017 0.278578,3.25608 0.01363,0.0362 0.03502,0.0679 0.06125,0.0952 0.0087,0.0407 0.03387,0.0707 0.06883,0.0884 -0.41843,0.87177 -0.718218,1.77817 -0.926253,2.70498 -0.196488,-1.01017 -0.525243,-1.99974 -1.221262,-2.74679 -0.757814,-0.81345 -1.871668,-0.7301 -2.380829,0.29597 -0.551353,1.11005 -0.01331,2.4732 0.832603,3.26527 0.44103,0.41263 1.720241,1.3236 2.475908,1.06461 -0.112736,1.20639 -0.09084,2.43313 0.02622,3.65479 -0.359122,-0.62269 -0.808963,-1.18069 -1.447405,-1.55173 -0.632903,-0.36792 -2.10815,-0.78794 -2.51108,0.12084 -0.391675,0.88296 0.540087,2.0489 1.177443,2.55975 0.871037,0.69801 1.943267,0.99954 3.036582,0.77161 0.226393,1.32613 0.543297,2.63047 0.903034,3.8789 0.04705,0.16336 0.332517,0.12026 0.301957,-0.054 -0.231608,-1.32137 -0.470045,-2.62615 -0.655553,-3.92177 0.949099,0.38545 1.996509,0.39739 2.93245,-0.0528 0.767412,-0.3691 1.743736,-1.17871 1.485675,-2.13942 -0.258807,-0.96428 -1.369397,-1.24632 -2.217177,-0.95371 -0.984574,0.33939 -1.795225,1.22265 -2.333301,2.13347 -0.163542,-1.37959 -0.248522,-2.75057 -0.177642,-4.12176 0.07838,-0.0103 0.149341,-0.0503 0.182589,-0.139" />
      <path
         inkscape:connector-curvature="0"
         id="path132-5"
         style="fill:#ebff9e;fill-opacity:1;fill-rule:nonzero;stroke:none;stroke-width:0.03527778"
         d="m 45.56668,123.25418 c 0.378776,-0.2165 0.834869,-0.46907 1.26944,-0.51662 0.747479,-0.0816 1.557682,0.42121 1.056096,1.25555 -0.407297,0.67668 -1.278366,0.98781 -2.026187,1.06623 -0.630646,0.0658 -1.140194,-0.08 -1.667969,-0.26497 0.780169,-0.0247 1.535636,-0.30718 2.108397,-0.85885 0.168672,-0.16242 -0.0446,-0.43236 -0.232433,-0.2842 -0.580348,0.45852 -1.258518,0.72235 -1.983444,0.73102 0.459393,-0.41652 0.928791,-0.8154 1.4761,-1.12816 z m -4.282073,0.62521 c -0.618363,-0.27848 -2.00891,-1.08917 -2.002612,-1.93649 0.01019,-1.46413 1.427869,-0.63731 1.819853,-0.34808 0.317945,0.23428 0.581257,0.53972 0.81359,0.85661 0.319222,0.43567 0.568318,0.91724 0.788443,1.41097 -0.678816,-0.32041 -1.274163,-0.71259 -1.851775,-1.28445 -0.163197,-0.1614 -0.422126,0.0394 -0.280163,0.22981 0.411195,0.55073 0.964199,1.02767 1.585063,1.36533 -0.298697,-0.0732 -0.591204,-0.16715 -0.87237,-0.2937 z m 2.670189,-6.74328 c 0.02909,-0.0216 0.05942,-0.0416 0.08886,-0.0622 0.762847,0.43664 1.707121,0.45145 2.513372,0.11627 0.190509,-0.0795 0.09499,-0.41517 -0.109556,-0.35265 -0.70693,0.21666 -1.360447,0.18595 -2.023318,-0.0213 0.334774,-0.21239 0.685688,-0.3976 1.059606,-0.5433 0.7812,-0.30423 2.609828,-0.67691 2.818118,0.64667 0.191531,1.21766 -1.507024,1.4072 -2.278271,1.36813 -0.859718,-0.0429 -1.449278,-0.35539 -2.09495,-0.86447 0.008,-0.0956 0.01759,-0.19138 0.02607,-0.2872 z m -1.190039,-0.1414 c -0.712428,-0.41944 -1.262704,-0.96046 -1.709236,-1.69588 -0.111364,-0.18331 -0.405627,-0.0629 -0.31119,0.14303 0.213017,0.46517 0.521911,0.88913 0.895162,1.24513 -0.807023,-0.32172 -1.517874,-0.84783 -2.027228,-1.61976 -0.115299,-0.1557 -0.211954,-0.32213 -0.289374,-0.49986 0.562712,-0.5712 1.051401,-0.67847 1.466228,-0.32091 0.375373,0.19307 0.708621,0.5757 0.985295,0.87857 0.517512,0.56648 0.903071,1.21268 1.21237,1.9073 -0.07472,-0.01 -0.147815,-0.0255 -0.221983,-0.0376 z m 2.169265,-7.3382 c 0.579453,-0.37194 1.101859,-0.80723 1.732266,-1.10874 0.614727,-0.29379 2.815864,-0.9421 2.245424,0.67496 -0.57344,1.62611 -2.237024,1.42751 -3.559132,0.96464 0.868798,-0.0911 1.693691,-0.3569 2.464911,-0.82175 0.181622,-0.10914 0.0558,-0.40901 -0.140615,-0.30654 -0.865491,0.45018 -1.809523,0.73385 -2.78018,0.80031 0.01229,-0.0676 0.02528,-0.1351 0.03733,-0.20288 z m -2.973995,-2.45919 c 0.401866,0.83852 0.985693,1.64187 1.698097,2.27539 -0.495918,-0.17243 -0.97099,-0.39196 -1.415094,-0.69793 -0.68596,-0.47246 -1.968906,-1.64814 -1.52953,-2.63425 0.583399,-1.31122 1.605659,-0.24846 1.991036,0.19447 0.347666,0.39957 0.634493,0.86573 0.880939,1.33205 0.286805,0.5422 0.483986,1.10793 0.663404,1.68401 -0.767953,-0.67336 -1.408628,-1.38751 -1.950576,-2.30888 -0.11845,-0.20232 -0.443833,-0.0654 -0.338307,0.15515 z m 4.149805,-5.66767 c -0.409734,-0.32254 -0.824503,-0.60819 -1.159673,-1.03022 -0.385585,-0.48593 -0.638989,-1.037647 -0.826352,-1.625227 -0.05657,-0.17713 -0.350568,-0.0835 -0.310116,0.0964 0.176698,0.783157 0.615365,1.665437 1.237523,2.299737 -0.385725,-0.13783 -0.754217,-0.32205 -1.089388,-0.5586 -0.419562,-0.29607 -0.796476,-0.67152 -1.082454,-1.0994 -0.220172,-0.324377 -0.379211,-0.676547 -0.476791,-1.056337 -0.226914,-0.58093 0.0083,-0.88835 0.706319,-0.92167 0.924173,-0.41974 0.994947,-0.27081 1.645682,0.4629 0.303333,0.34253 0.559933,0.72183 0.771916,1.1271 0.386151,0.738947 0.541983,1.504257 0.637633,2.314157 -0.01829,-0.003 -0.03616,-0.006 -0.0543,-0.009 z m 1.712512,-5.046047 c -0.24985,-0.24436 -0.503852,-0.48464 -0.70437,-0.78485 -0.163159,-0.24404 -0.299176,-0.50579 -0.412118,-0.77644 -0.02875,-0.0685 -0.226353,-0.647327 -0.345657,-0.969683 0.02364,-7.79e-4 0.04737,-0.005 0.07097,-0.0199 0.01419,-0.009 0.02859,-0.01842 0.04291,-0.02739 0.03494,-0.02202 0.05651,-0.08248 0.04519,-0.121706 -0.02766,-0.09676 -0.04404,-0.130755 -0.122196,-0.193187 -0.07154,-0.05671 -0.162289,-0.02409 -0.216931,0.03502 -0.389797,0.421646 0.138324,1.512096 0.350419,1.939256 0.0756,0.15223 0.162332,0.31195 0.258307,0.47103 -0.391684,-0.21503 -0.751944,-0.47927 -1.06288,-0.86522 -0.526091,-0.65283 -1.124584,-1.974458 -0.553078,-2.770075 1.031513,-1.436909 2.247516,0.705836 2.50744,1.609457 0.21405,0.744348 0.08056,1.526788 0.220141,2.264938 -0.02578,0.0694 -0.0519,0.13917 -0.0777,0.2086 z m 2.043612,-7.242988 c -0.07366,-0.670417 0.01488,-1.288162 0.125666,-1.946577 0.03257,-0.195249 -0.26197,-0.248152 -0.33103,-0.07432 -0.292775,0.734242 -0.410611,1.783628 -0.236293,2.69686 -0.760996,-1.089575 -1.197491,-2.441047 -0.615447,-3.716267 0.432808,-0.948292 1.652149,-0.847199 2.031941,0.05989 0.221313,0.528054 0.188538,1.147665 0.133732,1.704935 -0.09374,0.951097 -0.449706,1.787557 -0.739638,2.678235 -0.13081,-0.464722 -0.314862,-0.909697 -0.368931,-1.402756 z m 0.984972,1.750348 c 1.08822,0.34373 2.225672,0.35305 3.339355,0.0503 0.199302,-0.05432 0.153564,-0.365195 -0.05679,-0.322489 -0.973149,0.196862 -1.927398,0.183617 -2.875558,-0.01438 0.438809,-0.29622 0.895813,-0.559244 1.398371,-0.745336 0.585279,-0.217389 1.862722,-0.59031 2.472773,-0.325885 1.347222,0.584709 0.218628,1.367674 -0.279675,1.643703 -0.431179,0.239238 -0.907939,0.398287 -1.395189,0.472195 -0.962971,0.146078 -1.886827,-7.59e-4 -2.576197,-0.720584 -0.0121,-0.01191 -0.02703,-0.01853 -0.0403,-0.02819 0.0047,-0.0037 0.0088,-0.0063 0.01316,-0.0093 z m 4.783863,-9.981726 c 0.06667,-0.156634 -0.152348,-0.253173 -0.251656,-0.13404 -0.581775,0.696582 -1.048228,1.953374 -0.974318,3.001301 -0.73558,-1.562556 -0.968182,-4.482353 1.169692,-4.601402 2.287063,-0.12765 0.355403,3.081654 -0.584754,4.510694 -0.01305,-0.302485 -0.02527,-0.606165 0.01941,-0.91207 0.09713,-0.667252 0.36119,-1.251082 0.621601,-1.864492 z m -0.27813,3.356019 c 0.08487,-0.0197 0.169764,-0.03553 0.254774,-0.05367 0.843776,0.639409 2.004541,0.967121 3.024375,0.912137 0.216256,-0.0119 0.174089,-0.328243 -0.01538,-0.359045 -0.611919,-0.09917 -1.221587,-0.192237 -1.806115,-0.408807 -0.199096,-0.0739 -0.387564,-0.165285 -0.57353,-0.261402 0.444172,-0.07033 0.891297,-0.116231 1.345214,-0.124625 0.380419,-0.0071 0.765278,0.0033 1.143552,0.04664 0.320827,0.02574 0.636107,0.08369 0.945962,0.173463 0.783623,0.764978 0.849021,1.315697 0.196428,1.652595 -1.403868,1.323912 -3.719703,-0.154975 -4.703166,-1.370027 0.06224,-0.06944 0.125078,-0.138314 0.187922,-0.207189 z m 6.045379,-7.071377 c 0.58478,-0.590116 1.878093,-1.504635 2.765983,-1.177739 0.79942,0.294564 0.78428,1.327807 0.40655,2.002991 -0.37791,0.675543 -1.15117,0.823563 -1.860221,0.979946 -0.756157,0.166763 -1.521943,0.317928 -2.271075,0.521532 0.126534,-0.164518 0.372267,-0.537641 0.423688,-0.596076 0.22075,-0.25109 0.457662,-0.484893 0.708413,-0.705263 0.487009,-0.428101 1.021066,-0.801472 1.589635,-1.112737 0.20788,-0.114011 0.066,-0.437232 -0.155143,-0.338306 -0.780849,0.349894 -1.469677,0.801668 -2.067746,1.418451 -0.146429,0.151112 -0.339536,0.337952 -0.511636,0.54312 0.220381,-0.565049 0.526935,-1.087212 0.971552,-1.535919 z M 48.580072,96.557893 c 1.041816,0.48298 2.118789,0.73028 3.279322,0.69669 0.223702,-0.007 0.265688,-0.34881 0.03084,-0.35581 -0.997405,-0.0308 -1.963543,-0.21174 -2.884681,-0.56867 0.523033,-0.25739 1.076062,-0.43561 1.668405,-0.4946 1.007295,-0.10027 3.030347,0.30701 2.1776,1.78543 -0.563763,0.97759 -1.926007,0.88856 -2.799857,0.45285 -0.718291,-0.358 -1.063839,-0.90622 -1.475368,-1.5139 8.6e-4,-5.1e-4 0.0027,-0.001 0.0037,-0.002 z m 1.047435,5.268497 c -0.905616,0.15382 -1.74527,0.0619 -2.589475,-0.19305 0.705757,-0.2946 1.454414,-0.59323 2.221675,-0.58616 0.972158,0.009 2.62468,0.95493 1.748735,2.15722 -0.565934,0.77657 -2.090949,0.37991 -2.770473,0.0543 -0.639993,-0.30643 -1.050819,-0.78925 -1.496496,-1.28769 0.929168,0.39414 1.960501,0.44505 2.948602,0.21196 0.225136,-0.053 0.169629,-0.39612 -0.06257,-0.35661 z m -0.972142,21.70229 c 0.05387,-1.10324 -1.121245,-1.56874 -2.049273,-1.34949 -1.118188,0.26421 -2.276122,1.11911 -2.987466,2.07766 -0.0081,-0.007 -0.01936,-0.0122 -0.02866,-0.0181 0.03468,-2.02284 0.122329,-4.04036 0.27796,-6.05145 1.472628,1.16743 4.97173,1.18372 5.074469,-1.03665 0.04932,-1.06467 -0.976363,-1.74824 -1.937613,-1.78216 -1.070604,-0.0384 -2.127597,0.47055 -2.991484,1.12227 0.183652,-1.91829 0.425279,-3.83161 0.734613,-5.73974 0.909632,0.48022 2.034189,0.66015 3.006203,0.3447 0.963091,-0.31272 1.868272,-1.18616 1.880548,-2.25442 0.01156,-1.03389 -0.938425,-1.41353 -1.833413,-1.28629 -0.929564,0.13213 -2.019074,0.69221 -2.740939,1.41242 0.357627,-1.94703 0.780052,-3.88919 1.287813,-5.82603 0.037,-0.14016 0.07647,-0.28018 0.113955,-0.42055 1.271707,1.49589 4.518604,2.58204 5.2618,0.46504 0.351094,-0.9997 -0.208072,-2.0298 -1.141402,-2.45222 -1.261097,-0.57045 -2.579292,-0.0482 -3.72315,0.54781 0.381082,-1.33703 0.79492,-2.669027 1.251141,-3.986437 0.02095,-7.6e-4 0.04131,-0.005 0.06023,-0.0131 1.012009,1.85595 4.530874,2.691967 5.386389,0.38485 0.40827,-1.10077 -0.296878,-2.04094 -1.362429,-2.32011 -1.239136,-0.32443 -2.554106,0.0259 -3.630203,0.67147 0.55876,-1.50323 1.176276,-2.982784 1.88145,-4.417388 0.711905,0.896392 2.047631,1.020365 3.129168,0.83664 1.069203,-0.181912 2.795948,-0.874237 2.843299,-2.1718 0.04735,-1.294547 -1.394786,-1.311266 -2.344569,-1.201694 -1.061865,0.122544 -2.10832,0.531138 -2.944252,1.200758 1.028944,-1.881135 2.23302,-3.606578 3.600125,-5.194374 0.774557,1.04081 1.979513,1.74728 3.278531,1.880974 1.043951,0.107122 2.388678,-0.125677 2.839028,-1.212339 1.068143,-2.5789 -3.035024,-2.237995 -5.06807,-1.827549 1.219618,-1.281668 2.551165,-2.469504 3.987736,-3.574334 0.06172,0.04656 0.138521,0.07287 0.225426,0.06074 1.020292,-0.141356 2.027127,-0.440113 3.026286,-0.686767 0.597775,-0.147652 1.270425,-0.257739 1.730805,-0.700221 0.76995,-0.739263 1.2353,-2.69673 0.16695,-3.372821 -1.04463,-0.660904 -2.529622,0.0086 -3.390596,0.676847 -1.065088,0.825774 -1.807479,2.145712 -1.760164,3.509637 -0.06435,0.03286 -0.10812,0.07955 -0.127673,0.136275 -1.016327,0.630511 -1.964167,1.349265 -2.852288,2.137236 0.290381,-0.650463 0.474461,-1.332095 0.462967,-2.015934 -0.01779,-1.047048 -0.722011,-1.653855 -1.786057,-1.475681 -2.613971,0.438666 -2.814517,4.477862 -1.151846,6.044714 -0.993683,1.181886 -1.889754,2.461732 -2.705735,3.802525 0.112554,-0.734143 0.110754,-1.473473 -0.05554,-2.101132 -0.274784,-1.038947 -1.355812,-2.002323 -2.462308,-1.441063 -1.140256,0.578118 -1.25009,2.233665 -1.039085,3.326852 0.227906,1.178457 0.900769,2.28952 1.916184,2.938841 0.01696,0.01596 0.03517,0.02879 0.05508,0.03738 0.01544,0.0097 0.02863,0.02131 0.04443,0.03045 -0.598166,1.193975 -1.136908,2.419434 -1.632569,3.655588 -0.07954,-0.85736 -0.284945,-1.685807 -0.783462,-2.448443 -0.594561,-0.909302 -1.850541,-1.699406 -2.800103,-0.780354 -0.93237,0.902128 -0.591131,2.483881 0.02618,3.454677 0.559032,0.87839 1.555735,1.68971 2.631231,1.80515 0.03812,0.0341 0.07784,0.0661 0.117758,0.0974 -0.395935,1.1125 -0.754211,2.22468 -1.083463,3.325807 -0.226729,-0.964667 -0.70131,-1.880977 -1.343309,-2.618967 -0.752584,-0.86483 -2.027895,-1.92517 -3.049182,-0.82199 -0.940441,1.01614 -0.261213,2.61798 0.517878,3.507707 0.853578,0.97492 2.025022,1.50001 3.275466,1.49788 0.02285,0.0107 0.04627,0.0183 0.06943,0.0279 2.8e-4,10e-4 2.04e-4,0.002 4.09e-4,0.004 0.01143,0.0355 0.02619,0.0714 0.04046,0.10715 -0.0533,0.19132 -0.107716,0.38336 -0.158344,0.57265 -0.52048,1.9468 -0.976658,3.92311 -1.368142,5.91776 -0.734228,-2.03052 -2.392334,-4.84458 -4.036628,-3.21254 -0.841836,0.83561 -0.410922,2.07136 0.236781,2.86191 0.860099,1.04959 2.111671,1.74101 3.451983,1.9013 -0.02773,0.0833 -0.02719,0.17354 0.01202,0.25356 -0.350618,2.00721 -0.629904,4.03111 -0.836781,6.06268 -0.530683,-1.10381 -1.317725,-2.08566 -2.343174,-2.77293 -0.720978,-0.48357 -2.154401,-0.81581 -2.402051,0.38373 -0.195609,0.94678 0.950687,2.06987 1.62411,2.56401 0.788567,0.57828 1.707447,0.89975 2.662322,0.91132 0.04196,0.0177 0.08258,0.0381 0.125244,0.0539 0.0944,0.0348 0.16716,-0.001 0.208374,-0.0615 0.0067,-6.1e-4 0.01363,-2.2e-4 0.02058,1.8e-4 -0.165612,1.86665 -0.264776,3.73877 -0.298243,5.60931 -0.425485,-0.8458 -0.969346,-1.63126 -1.770418,-2.14644 -0.724065,-0.46515 -1.79898,-0.75653 -2.323856,0.12641 -0.567317,0.95367 0.160013,1.95551 0.879536,2.56875 0.89746,0.76545 2.042626,1.18896 3.205496,1.16527 0.01338,2.73082 0.171433,5.454 0.49683,8.1471 0.02616,0.21632 0.339162,0.15074 0.327651,-0.0575 -0.14215,-2.54307 -0.203277,-5.07523 -0.184111,-7.59868 1.645964,0.92247 4.971748,0.35437 5.076164,-1.78033" />
      <path
         inkscape:connector-curvature="0"
         id="path122-6"
         style="fill:#a1fc93;fill-opacity:1;fill-rule:nonzero;stroke:none;stroke-width:0.03527778"
         d="m 20.364761,125.17578 c 0.0032,-0.0116 0.0067,-0.0224 0.01066,-0.0337 0.0125,-9.3e-4 0.02414,-2.2e-4 0.03807,-0.004 0.980156,-0.32743 1.754042,-1.01311 2.137698,-1.97751 0.06145,-0.15484 -0.19219,-0.27687 -0.267432,-0.12488 -0.3753,0.75813 -0.991795,1.37482 -1.773027,1.69804 0.274044,-0.68762 0.755873,-1.25485 1.309732,-1.77689 0.315941,-0.2969 0.659466,-0.6224 1.040853,-0.83238 0.796303,-0.4377 1.671396,-0.0109 1.672892,0.94414 0.002,1.10441 -1.17075,1.90658 -2.125667,2.15697 -0.719103,0.1883 -1.351691,0.0601 -2.043289,-0.0489 z m -2.934211,0.16347 c -0.594421,-0.16487 -1.850297,-0.59663 -2.13532,-1.21677 -0.0026,-0.37539 -0.0053,-0.75078 -0.0079,-1.12619 0.515932,-0.1387 0.987551,-0.0652 1.415196,0.22092 0.309889,0.16498 0.605446,0.37108 0.880863,0.58696 0.374736,0.29391 0.676418,0.64146 0.978092,0.98901 -0.35991,-0.0855 -0.712996,-0.2023 -1.058189,-0.36756 -0.208994,-0.0999 -0.542177,-0.36366 -0.784172,-0.35779 -0.152252,0.003 -0.254825,0.22486 -0.09685,0.30866 0.0126,0.007 0.02637,0.0119 0.0395,0.0184 v 0 c 2.51e-4,2.8e-4 7.85e-4,3.2e-4 9.55e-4,3e-4 0.04766,0.0235 0.09577,0.045 0.144038,0.0665 0.02563,0.0113 0.04838,0.0128 0.07017,0.01 0.223664,0.10753 0.478867,0.29344 0.683706,0.3826 0.450626,0.19681 0.96521,0.38901 1.479627,0.46067 0.06482,0.0667 0.12599,0.13663 0.194827,0.20072 0.0063,0.008 0.01472,0.01 0.02235,0.0155 -0.61508,0.0201 -1.228951,-0.0272 -1.826905,-0.19252 z m 4.168132,-9.04909 c 0.321139,-0.21789 0.663925,-0.41072 1.01264,-0.58036 0.253657,-0.13212 0.516785,-0.24213 0.789257,-0.33031 0.9309,0.15572 1.245476,0.50768 0.943741,1.05544 -0.195804,0.89967 -1.435742,1.46938 -2.231369,1.69141 -0.690699,0.19294 -1.338411,0.17185 -2.016455,0.0864 -0.0026,-0.0207 -0.01162,-0.0387 -0.02058,-0.0575 1.071739,-0.14168 2.120486,-0.55293 2.956548,-1.2401 0.160845,-0.13209 -0.03123,-0.40158 -0.210814,-0.29669 -0.842168,0.49097 -1.683482,0.85208 -2.610488,1.08488 0.339386,-0.57174 0.820855,-1.02988 1.387296,-1.41302 z m -4.535375,1.43891 c -0.654467,-0.37227 -1.989375,-1.43667 -1.829103,-2.33949 0.300781,-1.69664 2.550566,0.34828 2.9118,0.76205 0.384834,0.44155 0.615994,0.93247 0.862949,1.42334 -0.822518,-0.43536 -1.547024,-0.93992 -2.182179,-1.72487 -0.118512,-0.14624 -0.318956,0.0493 -0.211339,0.1955 0.649397,0.88187 1.575561,1.74527 2.623762,2.18768 -8.13e-4,0.0282 -0.0015,0.0564 -0.0024,0.0847 -0.760395,-0.0559 -1.49397,-0.20211 -2.173994,-0.58879 z m 1.740727,-6.31644 c -0.32324,-0.0945 -0.629904,-0.23328 -0.912906,-0.41636 -0.636028,-0.41041 -1.206512,-1.07986 -1.391188,-1.82812 -0.117035,-0.47412 -0.10007,-0.43851 0.426168,-0.65129 0.516913,-0.20929 0.512285,-0.23411 0.860569,0.10319 0.304106,0.29502 0.553262,0.65854 0.775049,1.01742 0.213848,0.34622 0.373715,0.70801 0.515356,1.07684 -0.0755,-0.0538 -0.151844,-0.10661 -0.224402,-0.16558 -0.397528,-0.32515 -0.646248,-0.74512 -1.000876,-1.10215 -0.104292,-0.10502 -0.311504,-0.0152 -0.26677,0.14177 0.221446,0.77441 0.972749,1.44209 1.749401,1.84068 0.01092,0.0335 0.0228,0.0663 0.0343,0.0998 -0.190701,-0.035 -0.375723,-0.061 -0.564553,-0.11634 z m 1.559748,0.35261 c 7.86e-4,-6.3e-4 0.0021,-0.002 0.0031,-0.003 0.926529,0.34864 2.007625,0.11202 2.773226,-0.48893 0.176328,-0.13851 -0.03617,-0.43885 -0.228206,-0.3207 -0.729941,0.44773 -1.421238,0.54779 -2.207054,0.46482 0.401163,-0.38185 0.850271,-0.7078 1.360057,-0.94243 0.342252,-0.15786 0.705948,-0.27639 1.075994,-0.3498 0.253822,-0.0525 0.51046,-0.0799 0.770024,-0.0818 0.400422,-0.074 0.593339,0.10267 0.57875,0.52997 0.262913,0.32801 0.21908,0.5904 -0.130647,0.78714 -0.200989,0.15632 -0.412632,0.2956 -0.63552,0.41834 -0.35887,0.20344 -0.74141,0.37872 -1.143421,0.47604 -0.909594,0.2204 -1.511687,-0.0196 -2.223971,-0.43894 0.003,-0.0166 0.0053,-0.0338 0.008,-0.0509 z m -0.845538,-6.88077 c -0.472871,-0.5555 -1.26649,-1.95015 -0.46141,-2.61011 0.961083,-0.78785 1.369341,0.39176 1.474893,0.95158 0.07276,0.38661 0.04997,0.81572 0.06772,1.21148 0.0074,0.1687 0.01218,0.3387 0.01792,0.50909 -0.380267,-0.54939 -0.679258,-1.13623 -0.86509,-1.83895 -0.04834,-0.18228 -0.303347,-0.11529 -0.280395,0.0656 0.116031,0.90588 0.504941,1.84005 1.135349,2.52949 -0.414622,-0.18183 -0.777409,-0.45223 -1.088939,-0.81821 z m 2.182638,1.09893 c 0.422724,-0.46361 0.847383,-0.90456 1.387882,-1.24741 0.343837,-0.21826 0.737747,-0.41325 1.136476,-0.50596 0.332781,-0.0773 0.89367,0.0604 1.06795,0.38878 0.115405,0.21743 -0.136324,0.71455 -0.241745,0.87387 -0.385706,0.58229 -1.089388,0.90887 -1.772675,0.9562 -0.523248,0.0368 -0.932301,-0.13813 -1.366933,-0.33588 0.005,3.5e-4 0.008,0.003 0.01252,0.005 1.06598,0.13205 2.134319,-0.22052 2.843823,-1.03903 0.130514,-0.15061 -0.06703,-0.37969 -0.215772,-0.23299 -0.709828,0.70058 -1.615163,1.08357 -2.617365,0.99952 -0.14744,-0.0127 -0.174335,0.16971 -0.07946,0.24296 -0.05413,-0.0247 -0.108274,-0.0494 -0.163446,-0.074 0.0029,-0.0102 0.0058,-0.0203 0.009,-0.03 z m 0.991891,-6.00926 c 0.231155,-0.709747 0.863077,-1.739977 1.643086,-1.968247 1.864221,-0.5453 0.800235,1.86326 0.381231,2.448457 -0.479489,0.66934 -1.119473,1.12763 -1.855602,1.43532 0.396553,-0.84205 0.828118,-1.66684 1.239565,-2.501607 0.0877,-0.17926 -0.163121,-0.35097 -0.26799,-0.17079 -0.476911,0.820547 -0.863878,1.678857 -1.221619,2.557017 -5.97e-4,0.003 1.89e-4,0.006 -9.49e-4,0.008 -0.07212,-0.60265 -0.118699,-1.19019 0.0827,-1.80826 z m 2.291807,22.20802 c -0.581442,-1.12919 -1.79577,-1.07005 -2.717855,-0.41307 -0.85743,0.61114 -1.666548,1.44906 -2.090519,2.43232 -0.216478,-1.78642 -0.340263,-3.58649 -0.342734,-5.4108 1.242,0.31653 2.645343,0.0374 3.721192,-0.63368 0.863044,-0.53859 1.82085,-1.53092 1.389277,-2.63766 -0.511153,-1.31072 -1.986393,-0.69125 -2.86694,-0.19366 -0.911189,0.51444 -1.718706,1.15716 -2.219622,2.04138 0.05195,-1.60786 0.180671,-3.21342 0.394511,-4.8079 0.762967,0.54068 1.937623,0.49413 2.782956,0.20169 0.877528,-0.30321 2.346712,-1.0207 2.30214,-2.14725 -0.04201,-1.05726 -1.190432,-1.18372 -2.020452,-1.04846 -1.101075,0.179 -2.070175,0.72046 -2.838303,1.49357 0.06567,-0.39037 0.13466,-0.78025 0.210952,-1.16915 0.216196,-1.10506 0.508625,-2.18243 0.820205,-3.25305 1.368733,1.1748 4.264761,0.0556 4.37646,-1.76286 0.07205,-1.17461 -1.094963,-1.41335 -1.998784,-1.0967 -0.714828,0.25061 -1.408055,0.70683 -1.916369,1.30051 0.242107,-0.81066 0.481825,-1.62319 0.694073,-2.4463 0.01028,-0.0138 0.01903,-0.0279 0.02424,-0.0443 1.237758,-0.38761 2.278777,-1.27898 2.854032,-2.44693 0.385032,-0.781417 0.82033,-2.334777 -0.257687,-2.800227 -0.959617,-0.41454 -2.164124,0.69421 -2.649882,1.40674 -0.74795,1.09734 -0.782269,2.255047 -0.416919,3.439677 -0.07803,0.10961 -0.07438,0.25977 -0.0022,0.3625 -0.398996,0.84017 -0.74693,1.72047 -1.050687,2.62795 -0.01462,-0.45777 -0.04893,-0.9163 -0.07109,-1.36025 -0.02764,-0.54724 -0.04085,-1.14087 -0.34114,-1.62253 -0.469777,-0.75306 -1.409024,-0.9663 -2.069987,-0.32347 -1.491861,1.45059 0.377217,3.78812 2.022305,4.29656 0.01204,0.083 0.02069,0.16709 0.0369,0.24964 0.0051,0.0245 0.01462,0.0442 0.02549,0.0626 -0.408468,1.44423 -0.712344,2.94092 -0.941256,4.44336 -0.303918,-1.04913 -0.925637,-2.09622 -1.667377,-2.80095 -0.703618,-0.66829 -2.107622,-0.86898 -2.349299,0.35545 -0.223319,1.13339 0.709264,2.30277 1.58948,2.88794 0.403646,0.26783 1.511047,0.7853 2.245862,0.7007 0.0061,0.002 0.01252,0.005 0.01844,0.008 -0.195699,1.5475 -0.311654,3.08578 -0.375396,4.57174 -0.395444,-0.65056 -0.948446,-1.23321 -1.475976,-1.65525 -0.761705,-0.60949 -2.335439,-1.52538 -3.024388,-0.32054 -0.610908,1.0688 0.417567,2.36797 1.207355,3.00857 0.895847,0.727 2.089913,1.15004 3.240641,1.01074 -0.01228,2.08285 0.110584,4.18757 0.376469,6.27247 -0.04075,-0.004 -0.08151,-0.008 -0.121968,-0.0127 -0.545797,-1.05717 -1.777983,-2.00387 -2.810118,-2.45976 -0.807214,-0.35711 -2.0646,-0.36173 -2.347314,0.6927 -0.296466,1.10793 1.084277,1.98417 1.894072,2.36604 1.108282,0.52243 2.331998,0.67441 3.507361,0.36556 0.361652,2.40744 0.931631,4.7782 1.750055,7.04322 0.08447,0.23311 0.45222,0.16346 0.386582,-0.0905 -0.600304,-2.33556 -1.109355,-4.66617 -1.469057,-7.01493 2.115824,0.75811 5.841348,-1.22369 4.582641,-3.66831" />
      <path
         sodipodi:nodetypes="cccccccccccccccccccccccccccccccccccccccccccccccccccccccccccccccccccccccccccccccccccccccccccccccccccccccccccccccccccccccccccccccccc"
         inkscape:connector-curvature="0"
         id="path122-1"
         style="fill:#f7f598;fill-opacity:1;fill-rule:nonzero;stroke:none;stroke-width:0.03527778"
         d="m 57.296558,120.07174 c 0.334709,-0.19641 0.689378,-0.3664 1.048446,-0.51286 0.261759,-0.11523 0.531522,-0.2078 0.80918,-0.27796 0.918715,0.21631 1.209586,0.5881 0.872656,1.11494 -0.254254,0.88493 -1.528813,1.37228 -2.337262,1.54177 -0.701844,0.14733 -1.346789,0.0839 -2.017787,-0.0457 -0.0013,-0.0208 -0.0091,-0.0394 -0.01677,-0.0588 1.078713,-0.0713 2.152123,-0.41301 3.031357,-1.04399 0.169144,-0.12129 -0.0049,-0.40277 -0.190949,-0.30985 -0.872489,0.43481 -1.735628,0.74009 -2.675881,0.91174 0.376069,-0.5483 0.886486,-0.97396 1.476783,-1.31922 z m -4.619808,1.13906 c -0.628705,-0.4143 -1.891105,-1.56376 -1.672101,-2.45416 0.411155,-1.67333 2.522311,0.51443 2.855696,0.95094 0.355117,0.46578 0.553659,0.97078 0.767965,1.47676 -0.792269,-0.48824 -1.482206,-1.03914 -2.064638,-1.86396 -0.108688,-0.15369 -0.321496,0.0283 -0.223678,0.18125 0.590301,0.92247 1.457984,1.84462 2.474991,2.35467 -0.0027,0.0281 -0.0051,0.0562 -0.0079,0.0844 -0.755111,-0.10549 -1.477543,-0.29943 -2.130808,-0.72978 z m 2.150307,-6.189 c -0.316364,-0.11545 -0.613289,-0.274 -0.883705,-0.47521 -0.60781,-0.45115 -1.133267,-1.15649 -1.268586,-1.91523 -0.08576,-0.48076 -0.07116,-0.44412 0.467872,-0.62201 0.529499,-0.17501 0.526506,-0.20009 0.851972,0.15928 0.28415,0.31429 0.508985,0.69334 0.706814,1.06596 0.190735,0.35947 0.326587,0.73094 0.44379,1.10825 -0.07182,-0.0586 -0.144543,-0.11632 -0.213087,-0.17991 -0.3754,-0.35046 -0.596106,-0.78581 -0.926613,-1.16527 -0.0972,-0.11163 -0.309842,-0.0356 -0.275475,0.124 0.170299,0.78724 0.876303,1.50265 1.625209,1.95121 0.0087,0.0342 0.01841,0.0677 0.0277,0.10187 -0.188003,-0.0474 -0.370927,-0.0854 -0.55573,-0.15303 z m 1.533332,0.45391 c 8.25e-4,-5.7e-4 0.0023,-0.002 0.0032,-0.002 0.90173,0.40852 1.995993,0.24315 2.799275,-0.30642 0.185014,-0.12667 -0.0074,-0.44028 -0.206732,-0.33494 -0.757673,0.399 -1.454036,0.45361 -2.23274,0.3194 0.42529,-0.35478 0.894764,-0.65065 1.41881,-0.85142 0.351848,-0.13512 0.72252,-0.22959 1.096577,-0.27864 0.256713,-0.0358 0.514597,-0.0464 0.773728,-0.0313 0.404406,-0.0476 0.58535,0.14128 0.542832,0.56671 0.240886,0.34451 0.179978,0.60347 -0.181873,0.7769 -0.210788,0.14284 -0.43109,0.26797 -0.661532,0.37586 -0.371413,0.17953 -0.764602,0.3294 -1.17212,0.40021 -0.922066,0.1604 -1.507166,-0.11846 -2.190482,-0.58353 0.0041,-0.0163 0.0075,-0.0334 0.01131,-0.0502 z M 55.9669,108.55436 c -0.435508,-0.58525 -1.136169,-2.02884 -0.289631,-2.63471 1.010576,-0.72328 1.340773,0.48052 1.409467,1.04605 0.04731,0.39054 -0.0035,0.81725 -0.01169,1.21332 -0.0036,0.16882 -0.01001,0.33877 -0.01543,0.50917 -0.343503,-0.57309 -0.603454,-1.17824 -0.742907,-1.89162 -0.03631,-0.18505 -0.295153,-0.13489 -0.284086,0.0471 0.05651,0.91153 0.383457,1.86915 0.967403,2.59835 -0.401836,-0.20857 -0.746153,-0.50213 -1.033067,-0.88771 z m 2.106053,1.2394 c 0.452155,-0.43496 0.904756,-0.84718 1.466531,-1.15393 0.357382,-0.19529 0.763207,-0.36409 1.167148,-0.43051 0.337129,-0.0554 0.887804,0.11872 1.040222,0.45782 0.10093,0.22452 -0.182788,0.7041 -0.298408,0.85619 -0.422981,0.5558 -1.146525,0.83564 -1.831444,0.83815 -0.524534,0.002 -0.921266,-0.19883 -1.342026,-0.4246 0.005,6.7e-4 0.0078,0.004 0.01219,0.005 1.05506,0.20153 2.144179,-0.0804 2.905716,-0.85072 0.14009,-0.14174 -0.04203,-0.38325 -0.200064,-0.24661 -0.754148,0.65263 -1.682604,0.97556 -2.677153,0.82612 -0.146293,-0.0223 -0.185066,0.15794 -0.09519,0.23724 -0.0524,-0.0282 -0.104809,-0.0564 -0.15825,-0.0846 0.0036,-0.01 0.0071,-0.0199 0.01093,-0.0293 z m 1.382976,-5.93149 c 0.277101,-0.6931 0.975082,-1.67978 1.768356,-1.85652 1.895906,-0.42214 0.676598,1.91163 0.220201,2.46816 -0.522259,0.63653 -1.19086,1.05197 -1.945544,1.31083 0.450802,-0.8143 0.935411,-1.60908 1.400598,-2.41514 0.09924,-0.17314 -0.139805,-0.36089 -0.256239,-0.18796 -0.529582,0.78759 -0.971882,1.61874 -1.386317,2.4716 -7.76e-4,0.003 -1.92e-4,0.006 -0.0015,0.008 -0.03253,-0.60607 -0.04057,-1.1954 0.200846,-1.79897 z m -4.084412,18.58906 c 1.218627,0.39712 2.637228,0.21039 3.754682,-0.38883 0.896437,-0.48097 1.917122,-1.4085 1.558892,-2.5411 -0.424292,-1.34137 -1.936905,-0.81976 -2.848124,-0.38084 -0.942898,0.45371 -1.79074,1.04221 -2.348441,1.89176 0.157047,-1.60101 0.390552,-3.19471 0.708266,-4.77178 0.725953,0.58945 1.901139,0.61985 2.763795,0.38335 0.895488,-0.24513 2.408471,-0.86495 2.43771,-1.992 0.02726,-1.05775 -1.110425,-1.25908 -1.947517,-1.17842 -1.110428,0.10656 -2.112881,0.58345 -2.929951,1.30464 0.09107,-0.38524 0.185427,-0.76977 0.287002,-1.15284 0.288042,-1.08854 0.65034,-2.14447 1.031308,-3.19241 1.288928,1.26185 4.251987,0.3345 4.482432,-1.47271 0.148755,-1.16738 -1.000135,-1.48197 -1.922739,-1.22514 -0.729694,0.2033 -1.451288,0.61319 -1.997359,1.17233 0.294632,-0.79308 0.587004,-1.58818 0.852656,-2.39564 0.01116,-0.0131 0.02081,-0.0266 0.02709,-0.0426 1.260468,-0.30579 2.357582,-1.12713 3.008028,-2.25494 0.435337,-0.75455 0.971345,-2.2761 -0.07391,-2.81109 -0.930435,-0.47645 -2.204911,0.55112 -2.736251,1.23033 -0.818152,1.04605 -0.92815,2.19903 -0.641099,3.40503 -0.08504,0.10427 -0.09122,0.25435 -0.02589,0.36158 -0.453116,0.81226 -0.857908,1.66792 -1.220393,2.55357 0.01536,-0.45775 0.01113,-0.91754 0.01807,-1.36198 0.0082,-0.54788 0.03389,-1.14111 -0.23424,-1.64138 -0.419495,-0.78218 -1.342776,-1.05643 -2.044386,-0.45823 -1.583581,1.34987 0.128538,3.80469 1.73683,4.41969 0.0066,0.0837 0.0097,0.16809 0.02048,0.25152 0.0035,0.0247 0.01169,0.0451 0.02134,0.0641 -0.502095,1.41441 -0.903253,2.888 -1.229986,4.37225 -0.234618,-1.06677 -0.786488,-2.1523 -1.480526,-2.90405 -0.658381,-0.7129 -2.046244,-1.00503 -2.367523,0.20097 -0.297002,1.11634 0.557065,2.34424 1.397105,2.98575 0.385255,0.29367 1.456422,0.88249 2.195199,0.84615 0.0059,0.002 0.01219,0.005 0.01789,0.009 -0.296539,1.53138 -0.512902,3.05878 -0.673739,4.53738 -0.352027,-0.67504 -0.865719,-1.29262 -1.364502,-1.74828 -0.720192,-0.65802 -2.230623,-1.67493 -2.996932,-0.51775 -0.679536,1.02654 0.261725,2.39022 1.007904,3.08112 0.846356,0.78407 2.010182,1.28433 3.167559,1.22063 -0.148547,2.07758 -0.163663,4.18583 -0.03477,6.28366 0.11242,3.80284 0.410776,4.01792 0.469722,4.34875 0.06903,0.23814 0.440555,0.1927 0.391672,-0.065 -0.251784,-3.2537 -0.413544,-7.56616 -0.23737,-10.42647" />
    </g>
  </g>
</svg>
